<svg width="27" height="27" viewBox="0 0 27 27" fill="none" xmlns="http://www.w3.org/2000/svg">
<g clip-path="url(#clip0_28_42)">
<path d="M12.7089 0H14.2911C14.3588 0.0154115 14.4265 0.0390426 14.4941 0.0431523C16.6065 0.192131 18.5814 0.796263 20.3841 1.90076C23.8817 4.04399 26.0341 7.13452 26.7898 11.1775C26.8841 11.683 26.9313 12.1988 27 12.7094V14.2916C26.9785 14.4817 26.9569 14.6708 26.9354 14.8608C26.6165 17.7192 25.5429 20.2539 23.6274 22.4043C21.0844 25.2595 17.8841 26.7976 14.0655 26.9836C11.4025 27.113 8.89951 26.4924 6.62003 25.1013C3.11724 22.9642 0.966959 19.8686 0.210208 15.8235C0.115871 15.318 0.0687023 14.8023 0 14.2916C0 13.7646 0 13.2365 0 12.7094C0.0215336 12.5193 0.0430671 12.3303 0.0646007 12.1402C0.387604 9.2346 1.49709 6.67217 3.45562 4.49914C5.53412 2.19255 8.10995 0.752083 11.1749 0.209597C11.6825 0.119183 12.1972 0.0688382 12.7089 0ZM4.90965 13.5098C4.9199 14.6276 5.87251 15.5687 6.97072 15.5461C8.08944 15.5225 8.99282 14.6132 8.99795 13.5046C9.00308 12.394 8.06278 11.4518 6.95124 11.4549C5.83662 11.458 4.89837 12.4022 4.90862 13.5098H4.90965ZM22.0914 13.4902C22.0811 12.3724 21.1285 11.4323 20.0293 11.4549C18.9106 11.4775 18.0072 12.3878 18.0021 13.4974C17.9969 14.6081 18.9372 15.5502 20.0488 15.5461C21.1634 15.5431 22.1016 14.5988 22.0914 13.4902ZM15.5462 13.4974C15.5431 12.3827 14.5967 11.4415 13.4923 11.4539C12.3818 11.4662 11.4702 12.3755 11.4548 13.4882C11.4394 14.5917 12.3787 15.5379 13.4964 15.5451C14.6039 15.5523 15.5493 14.6081 15.5472 13.4974H15.5462Z" fill="#2F6B71"/>
</g>
<defs>
<clipPath id="clip0_28_42">
<rect width="27" height="27" fill="white"/>
</clipPath>
</defs>
</svg>
