<?xml version="1.0" encoding="utf-8"?>
<!-- Generator: Adobe Illustrator 19.2.1, SVG Export Plug-In . SVG Version: 6.00 Build 0)  -->
<svg version="1.1" id="Layer_1" xmlns="http://www.w3.org/2000/svg" xmlns:xlink="http://www.w3.org/1999/xlink" x="0px" y="0px"
	 viewBox="0 0 555.5 141.4" style="enable-background:new 0 0 555.5 141.4;" xml:space="preserve">
<style type="text/css">
	.st0{fill:#666766;}
</style>
<title>logo-familia-fujitsu</title>
<path class="st0" d="M136.6,91.3V46.6h24.8v5.3h-15.6v13.3h12.8v5.4h-12.8v20.8L136.6,91.3L136.6,91.3z"/>
<path class="st0" d="M159.1,91.3L174,46.6h8.5l14.7,44.8h-9.6l-2.6-9.1h-15.6l-2.7,9.1L159.1,91.3L159.1,91.3z M171.1,76.9h12.4
	l-6.1-21L171.1,76.9z"/>
<path class="st0" d="M200,91.3l3-44.8h9.7l7.7,27.5c0.5,1.7,1,4.1,1.6,7.3c0.5-3.1,1-5.5,1.5-7l7.8-27.8h9.9l3,44.8h-8.7l-1.2-24.2
	c-0.1-2.2-0.1-4.1-0.1-5.7V56c-1.1,4.4-1.8,7.4-2.3,9.1l-7.2,26.3h-6.3L211,65.1c-0.5-1.8-1.2-4.8-2.3-8.9c0.2,2.2,0.3,3.5,0.3,4
	c0,2-0.1,4.3-0.2,6.8l-1.2,24.3L200,91.3L200,91.3z"/>
<path class="st0" d="M252.7,91.3V46.6h9.2v44.8L252.7,91.3L252.7,91.3z M254.8,42.8l4.8-10.5h8.4l-8.3,10.5H254.8z"/>
<path class="st0" d="M271.8,91.3V46.6h9.2V86h15.8v5.3L271.8,91.3L271.8,91.3z"/>
<path class="st0" d="M303,91.3V46.6h9.2v44.8L303,91.3L303,91.3z"/>
<path class="st0" d="M316.3,91.3l14.9-44.8h8.5l14.7,44.8h-9.6l-2.6-9.1h-15.6l-2.7,9.1L316.3,91.3L316.3,91.3z M328.3,76.9h12.4
	l-6.1-21L328.3,76.9z"/>
<path class="st0" d="M374.6,91.3V46.6H396v3h-17.3v17h14.6v3h-14.6v21.9L374.6,91.3L374.6,91.3z"/>
<path class="st0" d="M402.9,75.2V46.6h4.1v27c0,5.6,0.5,9.4,1.5,11.3c1.3,2.8,4,4.2,8,4.2c4.4,0,7.2-1.7,8.6-5
	c0.7-1.9,1.1-5.4,1.1-10.5v-27h3.7v28.6c0,5.1-0.6,8.8-1.7,11c-1.9,4-5.8,6-11.7,6c-6.4,0-10.5-2.4-12.3-7.2
	C403.3,82.9,402.9,79.6,402.9,75.2z"/>
<path class="st0" d="M435.1,98.6c1.4,0,2.8-0.5,3.9-1.3c1.4-1.2,2.2-3.5,2.6-6.9c0.2-2.5,0.4-5,0.3-7.5V46.6h4.1v35
	c0.1,3.6-0.1,7.2-0.6,10.8c-0.7,3.6-2.4,6.1-5,7.5c-1.7,0.8-3.5,1.2-5.3,1.3L435.1,98.6L435.1,98.6z"/>
<path class="st0" d="M457.8,91.3V46.6h4.1v44.8L457.8,91.3L457.8,91.3z"/>
<path class="st0" d="M468,49.6v-3h25.9v3H483v41.8h-4.1V49.6H468z"/>
<path class="st0" d="M496.6,90.4v-4c3,1.8,6.4,2.8,9.9,2.8c3.4,0,6-0.8,7.8-2.4s2.7-3.9,2.6-6.8c0.1-2.1-0.5-4.1-1.7-5.8
	c-0.7-1-1.7-2-2.7-2.7c-1.1-0.8-2.3-1.5-3.5-2.2c-2.7-1.4-5.3-3.1-7.7-5c-2.3-2-3.6-4.9-3.5-8c-0.1-2.8,1-5.6,3-7.6
	c2.1-2,5.3-3.1,9.4-3.1c2.7,0,5.3,0.4,7.8,1.4v3.4c-2.3-1.1-4.9-1.7-7.4-1.8c-2.2-0.1-4.3,0.5-6.2,1.6c-1.7,1.2-2.6,3.1-2.6,5.7
	c-0.1,1.9,0.7,3.8,2.1,5.1c1.8,1.5,3.7,2.8,5.8,3.9c2.2,1.2,4.4,2.6,6.4,4.1c3.2,2.6,5,6.6,4.9,10.7c0,4.3-1.3,7.5-4,9.6
	c-2.3,1.8-5.7,2.7-10.2,2.7C503.2,92.3,499.8,91.7,496.6,90.4z"/>
<path class="st0" d="M528.5,75.2V46.6h4.1v27c0,5.6,0.5,9.4,1.5,11.3c1.3,2.8,4,4.2,8,4.2c4.4,0,7.2-1.7,8.6-5
	c0.8-1.8,1.2-5.3,1.2-10.5V46.6h3.7v28.6c0,5.1-0.6,8.8-1.7,11c-1.9,4-5.8,6-11.7,6c-6.4,0-10.5-2.4-12.3-7.2
	C529,82.9,528.5,79.6,528.5,75.2z"/>
<path class="st0" d="M178.5,20.9V0.4c1.6-0.3,3.1-0.4,4.7-0.4c1.3-0.1,2.6,0.2,3.8,0.8c1.7,1,2.5,2.9,2.5,5.6
	c0.1,1.8-0.4,3.5-1.4,4.9c-1,1.2-2.6,1.8-4.9,1.8c-1,0-2-0.1-2.9-0.4v8.2L178.5,20.9L178.5,20.9z M180.4,11.3
	c0.8,0.3,1.7,0.5,2.6,0.4c3,0,4.5-1.7,4.5-5.2c0.1-1.4-0.2-2.8-1-4c-0.9-0.9-2.1-1.4-3.3-1.2c-0.9,0-1.9,0.1-2.8,0.3L180.4,11.3
	L180.4,11.3z"/>
<path class="st0" d="M193.3,20.9V6.6c1.9-0.5,3.8-0.7,5.8-0.6v1.3c-1.3,0-2.6,0.1-3.9,0.5V21L193.3,20.9L193.3,20.9z"/>
<path class="st0" d="M200.5,13.5c-0.1-2,0.4-3.9,1.4-5.6c2.2-2.5,6-2.8,8.5-0.6c0.2,0.2,0.4,0.4,0.6,0.6c1.9,3.5,1.9,7.8,0,11.3
	c-1.1,1.4-2.8,2.2-4.5,2.1C202.5,21.3,200.5,18.7,200.5,13.5z M202.4,13.5c-0.1,1.5,0.2,3,0.8,4.5c0.6,1.3,1.9,2.2,3.4,2.1
	c2.7,0,4.1-2.2,4.1-6.5s-1.4-6.5-4.1-6.5C203.8,7.1,202.4,9.3,202.4,13.5L202.4,13.5z"/>
<path class="st0" d="M213.3,27c0.7,0,1.3-0.2,1.9-0.6c0.8-0.9,1.3-2.1,1.3-3.3c0.1-1.2,0.2-2.4,0.2-3.6V6.3h1.9v13.1
	c0,1.5-0.1,3.1-0.3,4.6c-0.2,1.7-1.3,3.2-2.9,3.8c-0.6,0.2-1.3,0.4-2,0.4V27L213.3,27z M216.3,2.5c0-0.3,0.1-0.7,0.4-0.9
	c0.2-0.2,0.5-0.3,0.8-0.3c0.4,0,0.7,0.1,0.9,0.4c0.2,0.2,0.3,0.5,0.3,0.8c0,0.7-0.5,1.2-1.2,1.2c-0.4,0-0.7-0.1-0.9-0.4
	C216.4,3,216.3,2.7,216.3,2.5L216.3,2.5z"/>
<path class="st0" d="M222.5,14.1c0-2.8,0.6-4.9,1.7-6.3c1.1-1.3,2.7-2,4.3-1.9c1.5-0.1,3,0.5,3.9,1.7c0.9,1.3,1.4,2.8,1.5,4.4
	c0,0.4,0.1,1,0.1,1.8h-9.5c-0.1,1.3,0.1,2.6,0.6,3.8c0.7,1.7,2.1,2.5,4.3,2.5c1.3,0,2.6-0.3,3.8-0.8v1.5c-1.2,0.4-2.5,0.6-3.8,0.6
	c-2.8,0-4.7-0.8-5.8-2.4C222.8,17.5,222.4,15.8,222.5,14.1z M224.5,12.6h7.5c0-1.1-0.2-2.1-0.5-3.1c-0.3-1.4-1.6-2.3-3-2.3
	c-1.4-0.1-2.8,0.8-3.3,2.1C224.8,10.3,224.6,11.4,224.5,12.6L224.5,12.6z"/>
<path class="st0" d="M237.4,15.7V2.6h1.9v3.7h4v1.3h-4v8.2c-0.1,1.1,0.1,2.2,0.6,3.2c0.4,0.4,0.9,0.6,1.4,0.6c0.4,0,0.9,0,1.3,0h0.7
	v1.4h-1.1c-0.8,0-1.6-0.1-2.4-0.2c-1.2-0.3-2-1.2-2.2-2.4C237.4,17.4,237.3,16.5,237.4,15.7z"/>
<path class="st0" d="M244.9,13.5c-0.1-2,0.4-3.9,1.4-5.6c2.2-2.5,6-2.8,8.5-0.6c0.2,0.2,0.4,0.4,0.6,0.6c1.9,3.5,1.9,7.8,0,11.3
	c-1.1,1.4-2.8,2.2-4.5,2.1C246.9,21.3,244.9,18.7,244.9,13.5z M246.8,13.5c-0.1,1.5,0.2,3,0.8,4.5c0.6,1.3,1.9,2.2,3.4,2.1
	c2.7,0,4.1-2.2,4.1-6.5s-1.4-6.5-4.1-6.5C248.2,7.1,246.8,9.3,246.8,13.5L246.8,13.5z"/>
<path class="st0" d="M278.7,127.2v-13.1h1.9v12.4c-0.1,1.8,0.1,3.5,0.7,5.2c0.6,1.3,1.9,1.9,3.7,1.9c2,0,3.3-0.8,3.9-2.3
	c0.4-1.6,0.6-3.2,0.5-4.8v-12.4h1.7v13.1c0.1,1.7-0.2,3.4-0.8,5c-0.9,1.8-2.7,2.8-5.4,2.8c-2.9,0-4.8-1.1-5.7-3.3
	C278.8,130.2,278.6,128.7,278.7,127.2z"/>
<path class="st0" d="M295.7,134.6v-14.5c1.7-0.3,3.5-0.5,5.2-0.6c1.5-0.1,2.9,0.3,4.1,1.1c1.4-0.7,3-1.1,4.5-1.1
	c2.3,0,3.8,0.9,4.4,2.5c0.3,1.2,0.4,2.5,0.3,3.8v8.7h-1.9v-9c0.1-1.2-0.1-2.4-0.5-3.6c-0.5-0.9-1.5-1.3-2.5-1.2
	c-1.2,0-2.5,0.4-3.5,1.1v12.7H304v-9.1c0-1,0-1.7-0.1-2c0.1-0.9-0.3-1.7-1-2.2c-0.6-0.3-1.3-0.5-2.1-0.4c-1.1,0-2.2,0.1-3.4,0.4
	v13.4H295.7L295.7,134.6z"/>
<path class="st0" d="M317.8,130.9c-0.2-2.1,1.1-4,3.1-4.6c1.8-0.5,3.7-0.9,5.6-1.1l0.4-0.1v-0.7c0-0.8-0.1-1.6-0.4-2.3
	c-0.5-0.9-1.5-1.4-3-1.4c-1.5,0-3,0.3-4.3,1v-1.5c1.4-0.5,2.9-0.7,4.4-0.7c2,0,3.4,0.5,4.3,1.5c0.6,0.8,0.9,1.7,0.9,2.6
	c0.1,0.6,0.1,1.2,0.1,1.8v8.9c-1.7,0.5-3.5,0.7-5.3,0.7c-2.1,0-3.6-0.3-4.5-1C318.2,133.3,317.7,132.1,317.8,130.9z M319.8,130.8
	c-0.1,0.9,0.3,1.7,0.9,2.3c0.9,0.5,2,0.8,3,0.7c1.1,0,2.2-0.1,3.2-0.4v-7c-1.3,0.1-2.6,0.4-3.9,0.7c-1,0.2-1.9,0.7-2.6,1.5
	C320,129.2,319.8,130,319.8,130.8L319.8,130.8z"/>
<path class="st0" d="M340.5,134.6v-14.4c1.9-0.5,3.8-0.7,5.8-0.6v1.3c-1.3,0-2.6,0.1-3.9,0.5v13.3H340.5z"/>
<path class="st0" d="M347.6,127.8c0-2.8,0.6-4.9,1.7-6.3c1.1-1.3,2.7-2,4.3-1.9c1.5-0.1,3,0.5,3.9,1.7c0.9,1.3,1.4,2.8,1.5,4.4
	c0,0.4,0.1,1,0.1,1.8h-9.5c-0.1,1.3,0.1,2.6,0.6,3.8c0.7,1.7,2.1,2.5,4.3,2.5c1.3,0,2.6-0.3,3.8-0.8v1.5c-1.2,0.4-2.5,0.6-3.8,0.6
	c-2.8,0-4.7-0.8-5.8-2.4C347.9,131.1,347.6,129.5,347.6,127.8z M349.6,126.2h7.5c0-1.1-0.2-2.1-0.5-3.1c-0.3-1.4-1.6-2.3-3-2.3
	c-1.4-0.1-2.8,0.8-3.3,2.1C350,124,349.7,125.1,349.6,126.2L349.6,126.2z"/>
<path class="st0" d="M363.1,134.6v-22h1.9v22H363.1z"/>
<path class="st0" d="M368.7,130.9c-0.2-2.1,1.1-4,3.1-4.6c1.8-0.5,3.7-0.9,5.6-1.1l0.4-0.1v-0.7c0-0.8-0.1-1.6-0.4-2.3
	c-0.5-0.9-1.5-1.4-3-1.4c-1.5,0-3,0.3-4.3,1v-1.5c1.4-0.5,2.9-0.7,4.4-0.7c2,0,3.4,0.5,4.3,1.5c0.6,0.8,0.9,1.7,0.9,2.6
	c0.1,0.6,0.1,1.2,0.1,1.8v8.9c-1.7,0.5-3.5,0.7-5.3,0.7c-2.1,0-3.6-0.3-4.5-1C369.1,133.3,368.6,132.1,368.7,130.9z M370.7,130.8
	c-0.1,0.9,0.3,1.7,0.9,2.3c0.9,0.5,2,0.8,3,0.7c1.1,0,2.2-0.1,3.2-0.4v-7c-1.3,0.1-2.6,0.4-3.9,0.7c-1,0.2-1.9,0.7-2.6,1.5
	C370.9,129.2,370.7,130,370.7,130.8L370.7,130.8z"/>
<path class="st0" d="M383.5,127.7c-0.1-2,0.4-4.1,1.3-5.9c1-1.6,2.8-2.5,4.7-2.3c0.9,0,1.7,0.1,2.5,0.5v1.3
	c-0.8-0.4-1.6-0.6-2.5-0.6c-1.5-0.1-2.9,0.8-3.4,2.1c-0.6,1.5-0.9,3.2-0.8,4.9c0,2.2,0.4,3.8,1.1,4.7c0.8,0.9,2,1.4,3.3,1.3
	c1,0,2-0.2,2.8-0.7v1.4c-1,0.4-2,0.5-3.1,0.5H389l-0.6,1.3c0.7,0,1.4,0.2,2,0.5c0.6,0.4,0.9,1.1,0.9,1.9c0.1,0.9-0.3,1.8-1.1,2.3
	c-0.7,0.3-1.4,0.5-2.2,0.4c-0.6,0-1.3-0.1-1.9-0.2v-1.2c0.6,0.2,1.3,0.3,2,0.3c0.4,0,0.8-0.1,1.2-0.4c0.2-0.3,0.4-0.7,0.3-1.1
	c0.1-0.5-0.2-1-0.6-1.3c-0.5-0.2-1-0.3-1.5-0.3H387l-0.4-0.4l1.1-2.1C384.9,134.1,383.5,131.8,383.5,127.7z"/>
<path class="st0" d="M394.6,130.9c-0.2-2.1,1.1-4,3.1-4.6c1.8-0.5,3.7-0.9,5.6-1.1l0.4-0.1v-0.7c0-0.8-0.1-1.6-0.4-2.3
	c-0.5-0.9-1.5-1.4-3-1.4c-1.5,0-3,0.3-4.3,1v-1.5c1.4-0.5,2.9-0.7,4.4-0.7c2,0,3.4,0.5,4.3,1.5c0.6,0.8,0.9,1.7,0.9,2.6
	c0.1,0.6,0.1,1.2,0.1,1.8v8.9c-1.7,0.5-3.5,0.7-5.3,0.7c-2.1,0-3.6-0.3-4.5-1C394.9,133.3,394.4,132.1,394.6,130.9z M396.4,117.1
	c0.3-2,1.1-3.1,2.5-3.1c0.6,0,1.2,0.2,1.7,0.7l1,1c0.2,0.2,0.4,0.3,0.6,0.3c0.4-0.1,0.7-0.4,0.8-0.8c0.1-0.3,0.1-0.6,0.2-0.9h1.4
	c-0.2,2.1-1,3.1-2.5,3.1c-0.4,0-0.9-0.1-1.3-0.4c-0.3-0.3-0.6-0.6-0.9-0.9c-0.3-0.3-0.7-0.6-1.2-0.7c-0.3,0-0.5,0.2-0.6,0.5
	c-0.2,0.4-0.3,0.8-0.3,1.3L396.4,117.1L396.4,117.1z M396.5,130.8c-0.1,0.9,0.3,1.7,0.9,2.3c0.9,0.5,2,0.8,3,0.7
	c1.1,0,2.2-0.1,3.2-0.4v-7c-1.3,0.1-2.6,0.4-3.9,0.7c-1,0.2-1.9,0.7-2.6,1.5C396.8,129.2,396.5,130,396.5,130.8L396.5,130.8z"/>
<path class="st0" d="M409.3,127.2c-0.1-2,0.4-3.9,1.4-5.6c2.2-2.5,6-2.8,8.5-0.6c0.2,0.2,0.4,0.4,0.6,0.6c1.9,3.5,1.9,7.8,0,11.3
	c-1.1,1.4-2.8,2.2-4.5,2.1C411.3,135,409.3,132.4,409.3,127.2z M411.2,127.2c-0.1,1.5,0.2,3,0.8,4.5c0.6,1.3,1.9,2.2,3.3,2.1
	c2.7,0,4.1-2.2,4.1-6.5s-1.4-6.5-4.1-6.5C412.6,120.8,411.2,122.9,411.2,127.2L411.2,127.2z"/>
<path class="st0" d="M432.1,134.6v-22h1.9v22H432.1z"/>
<path class="st0" d="M439,129v-9.1h1.8v8.9c-0.1,1.3,0.1,2.5,0.5,3.7c0.3,0.5,0.7,0.8,1.2,1c0.6,0.2,1.2,0.2,1.8,0.2
	c1,0,2-0.1,3-0.5v-13.3h1.9v14.4c-1.6,0.5-3.3,0.7-5,0.7c-2.6,0-4.2-0.8-4.8-2.4C439,131.4,438.9,130.2,439,129z"/>
<path class="st0" d="M453.1,127.8c-0.1-2.1,0.4-4.1,1.4-5.9c1-1.6,2.8-2.5,4.7-2.3c0.9,0,1.7,0.1,2.6,0.5v1.4
	c-0.8-0.4-1.6-0.6-2.5-0.6c-1.5-0.1-2.9,0.8-3.5,2.1c-0.6,1.5-0.9,3.2-0.8,4.8c0,2.2,0.4,3.8,1.1,4.7c0.8,0.9,2,1.4,3.3,1.3
	c1,0,2-0.2,2.8-0.7v1.4c-1,0.4-2,0.5-3,0.5c-2.2,0-3.8-0.7-4.8-2C453.5,131.4,453,129.6,453.1,127.8z"/>
<path class="st0" d="M465.5,134.6v-14.4c1.9-0.5,3.8-0.7,5.8-0.6v1.3c-1.3,0-2.6,0.1-3.9,0.5v13.3H465.5z"/>
<path class="st0" d="M473,130.9c-0.2-2.1,1.1-4,3.1-4.6c1.8-0.5,3.7-0.9,5.6-1.1l0.4-0.1v-0.7c0-0.8-0.1-1.6-0.4-2.3
	c-0.5-0.9-1.5-1.4-3-1.4c-1.5,0-3,0.3-4.3,1v-1.5c1.4-0.5,2.9-0.7,4.4-0.7c2,0,3.4,0.5,4.3,1.5c0.6,0.8,0.9,1.7,0.9,2.6
	c0.1,0.6,0.1,1.2,0.1,1.8v8.9c-1.7,0.5-3.5,0.7-5.3,0.7c-2.1,0-3.6-0.3-4.5-1C473.3,133.3,472.8,132.1,473,130.9z M475,130.8
	c-0.1,0.9,0.3,1.7,0.9,2.3c0.9,0.5,2,0.8,3,0.7c1.1,0,2.2-0.1,3.2-0.4v-7c-1.3,0.1-2.6,0.4-3.9,0.7c-1,0.2-1.9,0.7-2.6,1.5
	C475.2,129.2,474.9,130,475,130.8L475,130.8z"/>
<path class="st0" d="M488.8,129.3v-13.1h1.9v3.7h4v1.3h-4v8.2c-0.1,1.1,0.1,2.2,0.6,3.2c0.4,0.4,0.9,0.6,1.4,0.6c0.4,0,0.9,0,1.3,0
	h0.7v1.4h-1.1c-0.8,0-1.6-0.1-2.4-0.2c-1.2-0.3-2-1.2-2.2-2.4C488.9,131.1,488.8,130.2,488.8,129.3z"/>
<path class="st0" d="M497.6,116.1c0-0.3,0.1-0.7,0.4-0.9c0.2-0.2,0.5-0.3,0.8-0.3c0.4,0,0.7,0.1,0.9,0.4c0.2,0.2,0.3,0.5,0.3,0.8
	c0,0.3-0.1,0.7-0.4,0.9c-0.2,0.2-0.5,0.3-0.8,0.3c-0.3,0-0.7-0.1-0.9-0.4C497.7,116.7,497.6,116.4,497.6,116.1z M497.9,134.6v-14.6
	h1.9v14.6H497.9z"/>
<path class="st0" d="M502.7,119.9h1.9l3.5,10.2c0.2,0.6,0.4,1.3,0.7,2.3c0.2-0.9,0.4-1.7,0.7-2.3l3.4-10.2h1.7l-5.2,14.6h-1.3
	L502.7,119.9z"/>
<path class="st0" d="M516.2,130.9c-0.2-2.1,1.1-4,3.1-4.6c1.8-0.5,3.7-0.9,5.6-1.1l0.4-0.1v-0.7c0-0.8-0.1-1.6-0.4-2.3
	c-0.5-0.9-1.5-1.4-3-1.4c-1.5,0-3,0.3-4.3,1v-1.5c1.4-0.5,2.8-0.7,4.3-0.8c2,0,3.4,0.5,4.3,1.5c0.6,0.8,0.9,1.7,0.9,2.6
	c0.1,0.6,0.1,1.2,0.1,1.8v8.9c-1.7,0.5-3.5,0.7-5.3,0.7c-2.1,0-3.6-0.3-4.5-1C516.5,133.2,516,132.1,516.2,130.9z M518.2,130.8
	c-0.1,0.9,0.3,1.7,0.9,2.3c0.9,0.5,2,0.8,3,0.7c1.1,0,2.2-0.1,3.2-0.4v-7c-1.3,0.1-2.6,0.4-3.9,0.7c-1,0.2-1.9,0.7-2.6,1.5
	C518.4,129.2,518.1,130,518.2,130.8L518.2,130.8z"/>
<path class="st0" d="M531.9,133.6c0-0.3,0.1-0.7,0.4-0.9c0.5-0.4,1.3-0.4,1.7,0.1c0.2,0.2,0.3,0.5,0.3,0.8c0,0.4-0.1,0.7-0.4,0.9
	c-0.2,0.2-0.5,0.3-0.8,0.3c-0.3,0-0.7-0.1-0.9-0.4C532,134.2,531.9,133.9,531.9,133.6z"/>
</svg>
