<svg id="Layer_1" data-name="Layer 1" xmlns="http://www.w3.org/2000/svg" viewBox="0 0 555.52 141.35"><defs><style>.cls-1{fill:#666766;}.cls-2{fill:#e7e7e7;}.cls-3{fill:#ed2224;}</style></defs><title>logo-familia-fujitsu</title><path class="cls-1" d="M279.79,323.78V279h24.79v5.34H289v13.26h12.81V303H289v20.82h-9.2Z" transform="translate(-143.19 -232.44)"/><path class="cls-1" d="M302.31,323.78L317.21,279h8.5l14.72,44.76h-9.59l-2.64-9.07H312.63l-2.73,9.07h-7.59Zm12-14.42h12.44l-6.1-21Z" transform="translate(-143.19 -232.44)"/><path class="cls-1" d="M343.22,323.78l3-44.76h9.74l7.68,27.46q0.7,2.52,1.56,7.28,0.82-4.7,1.5-7L374.45,279h9.94l3,44.76h-8.71l-1.23-24.22q-0.15-3.31-.15-5.67V288.4q-1.6,6.56-2.33,9.1l-7.24,26.28h-6.29l-7.27-26.2q-0.73-2.7-2.27-8.89,0.34,3.27.34,4,0,3.06-.18,6.82l-1.24,24.27h-7.59Z" transform="translate(-143.19 -232.44)"/><path class="cls-1" d="M395.9,323.78V279h9.2v44.76h-9.2ZM398,275.26l4.83-10.53h8.41l-8.32,10.53H398Z" transform="translate(-143.19 -232.44)"/><path class="cls-1" d="M415,323.78V279h9.2v39.42h15.81v5.34H415Z" transform="translate(-143.19 -232.44)"/><path class="cls-1" d="M446.24,323.78V279h9.2v44.76h-9.2Z" transform="translate(-143.19 -232.44)"/><path class="cls-1" d="M459.48,323.78L474.38,279h8.5l14.72,44.76H488l-2.64-9.07H469.79l-2.73,9.07h-7.59Zm12-14.42h12.44l-6.1-21Z" transform="translate(-143.19 -232.44)"/><path class="cls-1" d="M517.83,323.78V279H539.2v3H521.93v17H536.5v3H521.93v21.85h-4.1Z" transform="translate(-143.19 -232.44)"/><path class="cls-1" d="M546.12,307.64V279h4.1v27.05q0,8.37,1.46,11.31,2,4.19,8,4.18,6.58,0,8.56-5,1.09-2.79,1.09-10.52V279h3.73v28.62q0,7.65-1.67,11-2.91,6-11.71,6-9.56,0-12.35-7.19Q546.12,314.25,546.12,307.64Z" transform="translate(-143.19 -232.44)"/><path class="cls-1" d="M578.29,331a6.68,6.68,0,0,0,3.92-1.3q2.06-1.79,2.61-6.86a68.92,68.92,0,0,0,.33-7.47V279h4.1v35a62.41,62.41,0,0,1-.64,10.8q-1.12,5.43-5,7.47a15,15,0,0,1-5.31,1.33V331Z" transform="translate(-143.19 -232.44)"/><path class="cls-1" d="M601,323.78V279h4.1v44.76H601Z" transform="translate(-143.19 -232.44)"/><path class="cls-1" d="M611.15,282v-3h25.92v3H626.14v41.79H622V282H611.15Z" transform="translate(-143.19 -232.44)"/><path class="cls-1" d="M639.8,322.87v-4a19.42,19.42,0,0,0,9.89,2.79q5.1,0,7.77-2.4t2.61-6.83a9.78,9.78,0,0,0-1.73-5.83,10.71,10.71,0,0,0-2.73-2.67,32.69,32.69,0,0,0-3.49-2.16,43.92,43.92,0,0,1-7.74-5,10.43,10.43,0,0,1-3.55-8,10,10,0,0,1,3-7.56q3.22-3.07,9.38-3.07A21.63,21.63,0,0,1,661,279.5v3.37a18.3,18.3,0,0,0-7.43-1.76,10.49,10.49,0,0,0-6.19,1.64q-2.58,1.82-2.58,5.74a6.65,6.65,0,0,0,2.09,5.07,33.09,33.09,0,0,0,5.8,3.92,63.37,63.37,0,0,1,6.43,4.07A13.14,13.14,0,0,1,664,312.28q0,6.44-4,9.65-3.4,2.73-10.17,2.73A25.71,25.71,0,0,1,639.8,322.87Z" transform="translate(-143.19 -232.44)"/><path class="cls-1" d="M671.73,307.64V279h4.1v27.05q0,8.37,1.46,11.31,2,4.19,8,4.18,6.58,0,8.56-5Q695,313.8,695,306.07V279h3.73v28.62q0,7.65-1.67,11-2.91,6-11.71,6-9.56,0-12.35-7.19Q671.72,314.25,671.73,307.64Z" transform="translate(-143.19 -232.44)"/><circle class="cls-2" cx="20.13" cy="52.68" r="12.74"/><path class="cls-2" d="M163.57,301.09a20.41,20.41,0,0,0-20.38,20.38,1.66,1.66,0,0,0,3.32,0A17.05,17.05,0,0,1,180,317.1a24.57,24.57,0,0,1,3-1.72A20.42,20.42,0,0,0,163.57,301.09Z" transform="translate(-143.19 -232.44)"/><path class="cls-1" d="M226.12,302.17A30.12,30.12,0,0,0,202,314.34a24.47,24.47,0,0,1,4.61,2.22,25,25,0,0,1,44.57,15.65,2.5,2.5,0,0,0,5,0A30.08,30.08,0,0,0,226.12,302.17Z" transform="translate(-143.19 -232.44)"/><path class="cls-3" d="M206.59,316.56a24.56,24.56,0,0,0-37.41,20.92,2,2,0,0,0,4,0,20.56,20.56,0,0,1,41.12,0,2,2,0,0,0,4,0A24.56,24.56,0,0,0,206.59,316.56Z" transform="translate(-143.19 -232.44)"/><path class="cls-3" d="M205.63,277.69a16.24,16.24,0,0,0-10.36-3.49,16.91,16.91,0,1,0,0,33.83,16.43,16.43,0,0,0,13-5.89V292.8c-1.66,2.91-5,6.61-8.07,7.87a12.47,12.47,0,0,1-4.92,1,10.55,10.55,0,0,1-10.7-10.57,10.66,10.66,0,0,1,10.7-10.64,10.79,10.79,0,0,1,7.51,3.11c2,2,5.15,6,6.65,7.65a21.24,21.24,0,1,0-1.17-27v12.61c2.94-8,8.22-14.39,16.53-14.39A14.48,14.48,0,1,1,215.43,288c-3.11-2.44-6.56-7.6-9.8-10.32" transform="translate(-143.19 -232.44)"/><path class="cls-1" d="M321.7,253.37V232.84a31.9,31.9,0,0,1,4.73-.4,7.67,7.67,0,0,1,3.8.77q2.54,1.5,2.54,5.64a7.44,7.44,0,0,1-1.44,4.9q-1.48,1.78-4.86,1.78a10.93,10.93,0,0,1-2.9-.36v8.21H321.7Zm1.88-9.66a7.39,7.39,0,0,0,2.64.45q4.51,0,4.51-5.18a6.3,6.3,0,0,0-1-4,4,4,0,0,0-3.33-1.22,16.84,16.84,0,0,0-2.78.26v9.64Z" transform="translate(-143.19 -232.44)"/><path class="cls-1" d="M336.48,253.37V239a23.63,23.63,0,0,1,5.75-.65v1.25a15.93,15.93,0,0,0-3.87.46v13.33h-1.88Z" transform="translate(-143.19 -232.44)"/><path class="cls-1" d="M343.7,245.94a9.41,9.41,0,0,1,1.42-5.56,6,6,0,0,1,9.09,0,12,12,0,0,1,0,11.33,5.17,5.17,0,0,1-4.52,2.06Q343.7,253.77,343.7,245.94Zm1.88,0a11.13,11.13,0,0,0,.75,4.47,3.37,3.37,0,0,0,3.35,2.08q4.06,0,4.06-6.48t-4.08-6.46Q345.58,239.58,345.58,246Z" transform="translate(-143.19 -232.44)"/><path class="cls-1" d="M356.45,259.45a3.38,3.38,0,0,0,1.9-.6,5,5,0,0,0,1.27-3.29,31.46,31.46,0,0,0,.17-3.55v-13.3h1.88v13.14a25.72,25.72,0,0,1-.31,4.56,4.61,4.61,0,0,1-2.91,3.83,7.72,7.72,0,0,1-2,.4v-1.2Zm3-24.56a1.18,1.18,0,0,1,.4-0.89,1.13,1.13,0,0,1,.82-0.32,1.19,1.19,0,0,1,.92.4,1.23,1.23,0,0,1,.31.82,1.23,1.23,0,0,1-2.15.82A1.22,1.22,0,0,1,359.5,234.89Z" transform="translate(-143.19 -232.44)"/><path class="cls-1" d="M365.67,246.53q0-4.24,1.74-6.33a5.33,5.33,0,0,1,4.34-1.88,4.5,4.5,0,0,1,3.89,1.7,8.74,8.74,0,0,1,1.46,4.41q0.06,0.57.1,1.81h-9.55a10,10,0,0,0,.57,3.79q1,2.49,4.29,2.49a8.88,8.88,0,0,0,3.84-.81v1.48a11.17,11.17,0,0,1-3.82.58q-4.23,0-5.75-2.37A9,9,0,0,1,365.67,246.53Zm2-1.54h7.49a12.24,12.24,0,0,0-.45-3.13,2.94,2.94,0,0,0-3-2.28,3.31,3.31,0,0,0-3.28,2.14A11.94,11.94,0,0,0,367.66,245Z" transform="translate(-143.19 -232.44)"/><path class="cls-1" d="M380.54,248.11V235h1.88v3.74h4V240h-4v8.21a5.65,5.65,0,0,0,.59,3.17,2,2,0,0,0,1.38.62,13.14,13.14,0,0,0,1.34,0h0.72v1.36h-1.11a9.42,9.42,0,0,1-2.41-.24,2.89,2.89,0,0,1-2.21-2.42A14.53,14.53,0,0,1,380.54,248.11Z" transform="translate(-143.19 -232.44)"/><path class="cls-1" d="M388.1,245.94a9.41,9.41,0,0,1,1.42-5.56,6,6,0,0,1,9.09,0,12,12,0,0,1,0,11.33,5.17,5.17,0,0,1-4.52,2.06Q388.1,253.77,388.1,245.94Zm1.88,0a11.13,11.13,0,0,0,.75,4.47,3.37,3.37,0,0,0,3.35,2.08q4.06,0,4.06-6.48t-4.08-6.46Q390,239.58,390,246Z" transform="translate(-143.19 -232.44)"/><path class="cls-1" d="M421.89,359.63V346.51h1.88v12.41a13.34,13.34,0,0,0,.67,5.19q0.93,1.92,3.69,1.92,3,0,3.92-2.28a15.35,15.35,0,0,0,.5-4.83V346.51h1.71v13.12a12.16,12.16,0,0,1-.77,5.05q-1.34,2.76-5.37,2.76-4.38,0-5.66-3.3A13.29,13.29,0,0,1,421.89,359.63Z" transform="translate(-143.19 -232.44)"/><path class="cls-1" d="M438.89,367V352.55a34.37,34.37,0,0,1,5.21-.56,6.37,6.37,0,0,1,4.1,1.1,10.55,10.55,0,0,1,4.53-1.1q3.51,0,4.36,2.55a14,14,0,0,1,.33,3.76V367h-1.88v-9a9.09,9.09,0,0,0-.47-3.59,2.51,2.51,0,0,0-2.49-1.18,6.61,6.61,0,0,0-3.5,1.06V367h-1.88v-9.15q0-1.55-.06-2a2.5,2.5,0,0,0-1-2.2,4.08,4.08,0,0,0-2.06-.43,17.87,17.87,0,0,0-3.35.35V367h-1.88Z" transform="translate(-143.19 -232.44)"/><path class="cls-1" d="M461,363.35a4.43,4.43,0,0,1,3.13-4.62,34.45,34.45,0,0,1,5.57-1.11l0.36-.06V356.9a5,5,0,0,0-.44-2.31q-0.71-1.35-3-1.35a9.26,9.26,0,0,0-4.29,1v-1.49a14.18,14.18,0,0,1,4.39-.72q3,0,4.28,1.45a4.61,4.61,0,0,1,.92,2.62,16.9,16.9,0,0,1,.07,1.77v8.94a19.94,19.94,0,0,1-5.28.67q-3.22,0-4.47-1A3.71,3.71,0,0,1,461,363.35Zm2-.15a2.68,2.68,0,0,0,.92,2.3,5.07,5.07,0,0,0,3,.68,11.36,11.36,0,0,0,3.21-.42v-6.95a26.66,26.66,0,0,0-3.88.72,4.52,4.52,0,0,0-2.57,1.45A3.55,3.55,0,0,0,463,363.19Z" transform="translate(-143.19 -232.44)"/><path class="cls-1" d="M483.7,367V352.64a23.61,23.61,0,0,1,5.75-.65v1.25a15.91,15.91,0,0,0-3.87.46V367H483.7Z" transform="translate(-143.19 -232.44)"/><path class="cls-1" d="M490.84,360.2q0-4.24,1.74-6.33a5.33,5.33,0,0,1,4.34-1.88,4.5,4.5,0,0,1,3.89,1.7,8.73,8.73,0,0,1,1.46,4.41q0.06,0.57.1,1.81h-9.55a10,10,0,0,0,.57,3.79q1,2.49,4.29,2.49a8.88,8.88,0,0,0,3.84-.81v1.47a11.16,11.16,0,0,1-3.82.58q-4.23,0-5.75-2.37A9,9,0,0,1,490.84,360.2Zm2-1.54h7.49a12.24,12.24,0,0,0-.45-3.13,2.94,2.94,0,0,0-3-2.28,3.31,3.31,0,0,0-3.28,2.14A11.94,11.94,0,0,0,492.83,358.66Z" transform="translate(-143.19 -232.44)"/><path class="cls-1" d="M506.3,367V345h1.88V367H506.3Z" transform="translate(-143.19 -232.44)"/><path class="cls-1" d="M511.92,363.35a4.43,4.43,0,0,1,3.13-4.62,34.45,34.45,0,0,1,5.57-1.11l0.36-.06V356.9a5,5,0,0,0-.44-2.31q-0.71-1.35-3-1.35a9.26,9.26,0,0,0-4.29,1v-1.49a14.18,14.18,0,0,1,4.39-.72q3,0,4.28,1.45a4.61,4.61,0,0,1,.92,2.62,16.9,16.9,0,0,1,.07,1.77v8.94a19.94,19.94,0,0,1-5.28.67q-3.22,0-4.47-1A3.71,3.71,0,0,1,511.92,363.35Zm2-.15a2.68,2.68,0,0,0,.92,2.3,5.07,5.07,0,0,0,3,.68,11.36,11.36,0,0,0,3.21-.42v-6.95a26.66,26.66,0,0,0-3.88.72,4.52,4.52,0,0,0-2.57,1.45A3.55,3.55,0,0,0,513.9,363.19Z" transform="translate(-143.19 -232.44)"/><path class="cls-1" d="M526.66,360.17A10.88,10.88,0,0,1,528,354.3a5.13,5.13,0,0,1,4.7-2.31,6.76,6.76,0,0,1,2.54.45v1.34a5.13,5.13,0,0,0-2.48-.6,3.47,3.47,0,0,0-3.43,2.13,11.7,11.7,0,0,0-.83,4.85q0,3.32,1.11,4.73a3.93,3.93,0,0,0,3.28,1.28,5.92,5.92,0,0,0,2.83-.67v1.43a8.65,8.65,0,0,1-3.09.5H532.2l-0.64,1.31a4.26,4.26,0,0,1,2,.5,2.05,2.05,0,0,1,.87,1.86,2.35,2.35,0,0,1-1.09,2.25,4.42,4.42,0,0,1-2.15.44,10.1,10.1,0,0,1-1.93-.21v-1.2a5.52,5.52,0,0,0,2,.33,1.49,1.49,0,0,0,1.16-.37,1.67,1.67,0,0,0,.33-1.13,1.35,1.35,0,0,0-.6-1.27,3.15,3.15,0,0,0-1.48-.26l-0.45,0-0.43-.35,1.07-2.13Q526.66,366.27,526.66,360.17Z" transform="translate(-143.19 -232.44)"/><path class="cls-1" d="M537.75,363.35a4.44,4.44,0,0,1,3.13-4.62,34.48,34.48,0,0,1,5.57-1.11l0.36-.06V356.9a5,5,0,0,0-.44-2.31q-0.71-1.35-3-1.35a9.25,9.25,0,0,0-4.29,1v-1.49a14.17,14.17,0,0,1,4.39-.72q3,0,4.28,1.45a4.62,4.62,0,0,1,.92,2.62,17.23,17.23,0,0,1,.07,1.77v8.94a19.93,19.93,0,0,1-5.28.67q-3.22,0-4.47-1A3.71,3.71,0,0,1,537.75,363.35Zm1.82-13.76q0.46-3.07,2.49-3.08a2.37,2.37,0,0,1,1.65.68l1,1a1.09,1.09,0,0,0,.63.31,1,1,0,0,0,.79-0.81,2.91,2.91,0,0,0,.15-0.9h1.42q-0.25,3.08-2.45,3.08a2.15,2.15,0,0,1-1.25-.41,9.48,9.48,0,0,1-.89-0.9,2,2,0,0,0-1.15-.66,0.73,0.73,0,0,0-.64.46,2.62,2.62,0,0,0-.32,1.25h-1.42Zm0.15,13.61a2.68,2.68,0,0,0,.92,2.3,5.07,5.07,0,0,0,3,.68,11.35,11.35,0,0,0,3.21-.42v-6.95a26.64,26.64,0,0,0-3.87.72,4.52,4.52,0,0,0-2.57,1.45A3.55,3.55,0,0,0,539.73,363.19Z" transform="translate(-143.19 -232.44)"/><path class="cls-1" d="M552.51,359.61a9.41,9.41,0,0,1,1.42-5.56,6,6,0,0,1,9.09,0,12,12,0,0,1,0,11.33,5.17,5.17,0,0,1-4.52,2.06Q552.51,367.44,552.51,359.61Zm1.88,0a11.13,11.13,0,0,0,.75,4.47,3.37,3.37,0,0,0,3.35,2.08q4.06,0,4.06-6.48t-4.08-6.46Q554.38,353.24,554.39,359.64Z" transform="translate(-143.19 -232.44)"/><path class="cls-1" d="M575.29,367V345h1.88V367h-1.88Z" transform="translate(-143.19 -232.44)"/><path class="cls-1" d="M582.15,361.44v-9.06H584v8.88a8.67,8.67,0,0,0,.51,3.69,2.12,2.12,0,0,0,1.17,1,5.61,5.61,0,0,0,1.78.22,9.4,9.4,0,0,0,3-.46V352.38h1.88v14.36a17.44,17.44,0,0,1-5,.7q-3.83,0-4.81-2.41A10.88,10.88,0,0,1,582.15,361.44Z" transform="translate(-143.19 -232.44)"/><path class="cls-1" d="M596.29,360.19a11,11,0,0,1,1.36-5.89,5.15,5.15,0,0,1,4.7-2.31,6.75,6.75,0,0,1,2.56.46v1.35a5.49,5.49,0,0,0-2.46-.56,3.49,3.49,0,0,0-3.45,2.12,11.51,11.51,0,0,0-.83,4.82q0,3.31,1.11,4.73a3.92,3.92,0,0,0,3.27,1.28,5.61,5.61,0,0,0,2.83-.68v1.43a8.11,8.11,0,0,1-3,.5q-3.3,0-4.76-2A8.9,8.9,0,0,1,596.29,360.19Z" transform="translate(-143.19 -232.44)"/><path class="cls-1" d="M608.72,367V352.64a23.61,23.61,0,0,1,5.75-.65v1.25a15.91,15.91,0,0,0-3.87.46V367h-1.88Z" transform="translate(-143.19 -232.44)"/><path class="cls-1" d="M616.14,363.35a4.44,4.44,0,0,1,3.13-4.62,34.48,34.48,0,0,1,5.57-1.11l0.36-.06V356.9a5,5,0,0,0-.44-2.31q-0.71-1.35-3-1.35a9.26,9.26,0,0,0-4.29,1v-1.49a14.17,14.17,0,0,1,4.39-.72q3,0,4.28,1.45a4.62,4.62,0,0,1,.92,2.62,17.23,17.23,0,0,1,.07,1.77v8.94a19.94,19.94,0,0,1-5.28.67q-3.22,0-4.47-1A3.71,3.71,0,0,1,616.14,363.35Zm2-.15a2.68,2.68,0,0,0,.92,2.3,5.07,5.07,0,0,0,3,.68,11.35,11.35,0,0,0,3.21-.42v-6.95a26.64,26.64,0,0,0-3.87.72,4.52,4.52,0,0,0-2.57,1.45A3.55,3.55,0,0,0,618.11,363.19Z" transform="translate(-143.19 -232.44)"/><path class="cls-1" d="M632,361.77V348.64h1.88v3.74h4v1.25h-4v8.21a5.65,5.65,0,0,0,.59,3.17,2,2,0,0,0,1.38.62,13,13,0,0,0,1.34,0h0.72V367h-1.11a9.43,9.43,0,0,1-2.41-.24,2.89,2.89,0,0,1-2.21-2.42A14.64,14.64,0,0,1,632,361.77Z" transform="translate(-143.19 -232.44)"/><path class="cls-1" d="M640.83,348.55a1.18,1.18,0,0,1,.4-0.89,1.12,1.12,0,0,1,.81-0.32,1.2,1.2,0,0,1,.93.4,1.23,1.23,0,0,1,.31.82,1.16,1.16,0,0,1-.41.9,1.18,1.18,0,0,1-.84.32,1.14,1.14,0,0,1-.89-0.4A1.23,1.23,0,0,1,640.83,348.55ZM641.12,367V352.38H643V367h-1.88Z" transform="translate(-143.19 -232.44)"/><path class="cls-1" d="M645.92,352.38h1.88l3.52,10.17q0.29,0.85.7,2.34,0.33-1.36.65-2.3l3.42-10.22h1.74L652.6,367h-1.27Z" transform="translate(-143.19 -232.44)"/><path class="cls-1" d="M659.36,363.35a4.44,4.44,0,0,1,3.13-4.62,34.48,34.48,0,0,1,5.57-1.11l0.36-.06V356.9a5,5,0,0,0-.44-2.31q-0.71-1.35-3-1.35a9.26,9.26,0,0,0-4.29,1v-1.49A14.17,14.17,0,0,1,665,352q3,0,4.28,1.45a4.62,4.62,0,0,1,.92,2.62,17.23,17.23,0,0,1,.07,1.77v8.94a19.94,19.94,0,0,1-5.28.67q-3.22,0-4.47-1A3.71,3.71,0,0,1,659.36,363.35Zm2-.15a2.68,2.68,0,0,0,.92,2.3,5.07,5.07,0,0,0,3,.68,11.35,11.35,0,0,0,3.21-.42v-6.95a26.64,26.64,0,0,0-3.87.72A4.52,4.52,0,0,0,662,361,3.55,3.55,0,0,0,661.34,363.19Z" transform="translate(-143.19 -232.44)"/><path class="cls-1" d="M675.12,366.07a1.17,1.17,0,0,1,.41-0.9,1.23,1.23,0,0,1,1.73.1,1.18,1.18,0,0,1,.31.81,1.21,1.21,0,0,1-.4.92,1.24,1.24,0,0,1-.83.31,1.2,1.2,0,0,1-.91-0.4A1.23,1.23,0,0,1,675.12,366.07Z" transform="translate(-143.19 -232.44)"/></svg>