<?xml version="1.0" encoding="utf-8"?>
<!-- Generator: Adobe Illustrator 19.2.1, SVG Export Plug-In . SVG Version: 6.00 Build 0)  -->
<svg version="1.1" id="レイヤー_1" xmlns="http://www.w3.org/2000/svg" xmlns:xlink="http://www.w3.org/1999/xlink" x="0px"
	 y="0px" viewBox="0 0 1471.9 252.2" style="enable-background:new 0 0 1471.9 252.2;" xml:space="preserve">
<style type="text/css">
	.st0{fill:#FF0000;}
</style>
<title>logo-fujitsu-fujitsu-general-brazil</title>
<path class="st0" d="M213.8,33.9c-3.8-3.4-9.9-5.4-16.1-5.4c-14.5-0.3-26.5,11.2-26.7,25.7s11.2,26.5,25.7,26.7c0.3,0,0.7,0,1,0
	c7.8,0.2,15.2-3.2,20.1-9.1V57.4c-2.6,4.5-7.8,10.2-12.5,12.2c-2.4,1-5,1.6-7.6,1.6c-9,0.1-16.5-7.1-16.6-16.1c0-0.1,0-0.2,0-0.3
	c0-9.1,7.4-16.5,16.6-16.5c0,0,0,0,0,0c4.4,0,8.5,1.8,11.6,4.8c3.1,3,8,9.4,10.3,11.9c12.2,13.2,32.8,13.9,46,1.7
	c6.6-6.1,10.4-14.7,10.4-23.8c0-18-14.6-32.9-32.6-32.9c-10.5,0-19.6,5.5-25.6,13.1v19.5c4.6-12.4,12.8-22.3,25.6-22.3
	c12.4,0,22.5,10.1,22.5,22.5c0,12.4-10.1,22.5-22.5,22.5c-5.3,0-10.5-1.9-14.5-5.3C224.1,46.1,218.8,38.2,213.8,33.9"/>
<path class="st0" d="M0,88.2h72v20.1c0,0-3.7-7.9-11.5-7.9H27.2V135h36.1v18.3c0,0-1.2-5.9-9.9-5.9H27.2v47.3c0,7,7.6,11.1,7.6,11.1
	H0.5c0,0,7.2-3.6,7.2-11.1v-94.2C7.7,92.7,0,88.2,0,88.2z"/>
<path class="st0" d="M181,88.3h36.6c0,0-8.2,3.9-8.2,10.2v110.3c0,37.3-37.4,43.4-39.3,43.3c3.2-2,18.7-15.3,18.8-43.3V98.5
	C188.9,92.5,181,88.3,181,88.3z"/>
<path class="st0" d="M222.8,88.3h36.8c0,0-8.2,3.9-8.2,10.4v96.1c0,6.9,8.2,11.2,8.2,11.2h-36.8c0,0,8.2-4.3,8.2-11.2V98.7
	C231,92.2,222.8,88.3,222.8,88.3z"/>
<path class="st0" d="M266.9,88.3h80.9l-6.9,21.4c0,0-2.1-9-9.9-9h-16.8v94.1c0,6,7.9,11.1,7.9,11.1h-36c0,0,7.8-4.6,7.8-11.1v-94.1
	h-20.3c-5.7,0-14,10.8-14,10.8L266.9,88.3z"/>
<path class="st0" d="M482.8,88.3h35.4c0,0-7.6,4-7.6,10.4v71.2c0,28.9-24,37.9-40.7,37.9s-42.4-9-42.4-37.9V98.6
	c0-6.4-7.8-10.4-7.8-10.4h36.4c0,0-8.1,3.9-8.1,10.4v71.2c0,15.2,10.1,25.1,21.9,25.1s20.8-10.3,20.8-25.1V98.6
	C490.8,92.3,482.8,88.3,482.8,88.3z"/>
<path class="st0" d="M138.6,88.3h36.1c0,0-7.7,4.2-7.7,10.5v71c0,29.1-25.1,38.2-41.9,38.2c-16.5,0-42.4-9.3-42.4-38.2v-71
	c0-6.3-7.4-10.5-7.4-10.5h36.4c0,0-8.4,4.2-8.4,10.5v71c0,15,10,25.4,21.8,25.5s21.3-10.6,21.3-25.5v-71
	C146.4,92.4,138.6,88.3,138.6,88.3z"/>
<path class="st0" d="M409,107.1c0,0-5.1-8.9-19.9-9s-22.8,7.7-22.8,17.8c0,11.4,8.5,15.7,21.8,22.1c12.6,6.1,31.6,14.4,31.5,35.5
	c0,18.9-16.8,34.6-46.8,34.6c-9.2,0-22-3-22-3l-6.9-22.6c6.4,6.2,17.6,12.8,29.2,12.8c12,0,26.3-7.4,26.3-19.3
	c0-23-53.5-19.1-53.5-57.6c0-13.2,9.2-32.4,41.1-32.4c10.4,0,21.9,3,21.9,3V107.1L409,107.1z"/>
</svg>
