<svg width="164" height="209" viewBox="0 0 164 209" fill="none" xmlns="http://www.w3.org/2000/svg">
<path d="M146.733 63.6009H17.267C7.7307 63.6009 0 71.3964 0 81.0128V191.588C0 201.204 7.7307 209 17.267 209H146.733C156.269 209 164 201.204 164 191.588V81.0128C164 71.3964 156.269 63.6009 146.733 63.6009Z" fill="#ED1C24"/>
<path d="M22.6427 144.548V116.405H38.1002V119.764H28.3753V128.102H36.3597V131.457H28.3753V144.548H22.6427Z" fill="white"/>
<path d="M43.626 139.324C43.626 140.236 43.8613 140.887 44.3278 141.263C44.9364 141.758 45.7762 142.004 46.8513 142.004C48.0157 142.004 48.9245 141.901 49.5858 141.701V134.623C49.383 134.672 49.2248 134.713 49.1111 134.738C47.4802 135.106 46.2266 135.535 45.3543 136.03C44.697 136.411 44.2386 136.861 43.987 137.381C43.7477 137.876 43.626 138.522 43.626 139.32M38.084 139.757C38.084 137.421 39.0049 135.625 40.8468 134.365C42.4251 133.298 45.3381 132.443 49.5899 131.792V131.047C49.5899 129.726 49.3667 128.777 48.9245 128.204C48.316 127.414 47.1353 127.022 45.3746 127.022C43.8856 127.022 42.2993 127.23 40.6115 127.652V124.448C42.3399 124.08 44.2508 123.896 46.3442 123.896C50.3607 123.896 52.9532 124.747 54.1298 126.453C54.6207 127.177 54.9331 128.175 55.0589 129.448C55.1075 129.996 55.1359 130.88 55.1359 132.099V144.385C52.3325 144.884 49.4398 145.133 46.4619 145.133C44.4698 145.133 42.9525 144.986 41.9057 144.691C40.433 144.282 39.3944 143.599 38.7899 142.646C38.3233 141.893 38.0921 140.932 38.0921 139.757" fill="white"/>
<path d="M60.3696 144.548V124.706C63.5747 124.17 66.2483 123.904 68.3905 123.904C70.7882 123.904 72.6666 124.24 74.0298 124.915C75.7947 124.24 77.8435 123.904 80.1804 123.904C83.5113 123.904 85.6737 124.686 86.6717 126.253C87.0734 126.903 87.333 127.734 87.4466 128.752C87.5237 129.337 87.5603 130.201 87.5603 131.346V144.548H82.0183V133.158C82.0183 130.716 81.8276 129.067 81.4503 128.216C81.288 127.848 81.0527 127.562 80.7484 127.357C80.4198 127.14 79.8842 127.034 79.1418 127.034C78.2979 127.034 77.4946 127.169 76.74 127.435V144.548H71.198V133.158C71.198 130.994 71.0844 129.538 70.8572 128.789C70.6543 128.114 70.3541 127.652 69.9484 127.398C69.5954 127.157 69.0518 127.034 68.3215 127.034C67.5385 127.034 66.7392 127.14 65.9197 127.357V144.548H60.3696Z" fill="white"/>
<path d="M93.9745 121.634L96.9849 115.014H102.227L97.0417 121.634H93.9745ZM92.8953 124.457H98.4373V144.548H92.8953V124.457Z" fill="white"/>
<path d="M109.562 114.306H104.02V144.548H109.562V114.306Z" fill="white"/>
<path d="M115.071 124.457H120.613V144.548H115.071V124.457ZM114.694 118.484C114.694 117.608 115.039 116.843 115.733 116.192C116.313 115.657 117.007 115.391 117.814 115.391C118.747 115.391 119.522 115.742 120.143 116.442C120.674 117.039 120.938 117.739 120.938 118.541C120.938 119.482 120.597 120.263 119.916 120.889C119.323 121.425 118.617 121.691 117.798 121.691C116.877 121.691 116.106 121.339 115.489 120.64C114.962 120.042 114.694 119.322 114.694 118.484Z" fill="white"/>
<path d="M129.941 139.324C129.941 140.236 130.176 140.887 130.643 141.263C131.251 141.758 132.091 142.004 133.166 142.004C134.33 142.004 135.239 141.901 135.901 141.701V134.623C135.698 134.672 135.539 134.713 135.426 134.738C133.795 135.106 132.541 135.535 131.669 136.03C131.012 136.411 130.553 136.861 130.302 137.381C130.062 137.876 129.941 138.522 129.941 139.32M124.399 139.757C124.399 137.421 125.32 135.625 127.162 134.365C128.74 133.298 131.653 132.443 135.905 131.792V131.047C135.905 129.726 135.681 128.777 135.239 128.204C134.631 127.414 133.45 127.022 131.689 127.022C130.2 127.022 128.614 127.23 126.926 127.652V124.448C128.655 124.08 130.565 123.896 132.659 123.896C136.675 123.896 139.268 124.747 140.444 126.453C140.935 127.177 141.248 128.175 141.374 129.448C141.422 129.996 141.451 130.88 141.451 132.099V144.385C138.647 144.884 135.754 145.133 132.777 145.133C130.785 145.133 129.267 144.986 128.22 144.691C126.748 144.282 125.705 143.599 125.105 142.646C124.638 141.893 124.407 140.932 124.407 139.757" fill="white"/>
<path d="M22.1396 180.059V148.811H39.3011V152.542H28.5052V161.796H37.3699V165.528H28.5052V180.059H22.1396Z" fill="white"/>
<path d="M41.9057 172.433V157.754H48.0604V171.885C48.0604 173.792 48.1942 175.064 48.458 175.698C48.8921 176.7 49.809 177.204 51.2087 177.204C52.1905 177.204 53.0506 177.105 53.793 176.905V157.754H59.9476V179.892C57.0915 180.415 54.1135 180.677 51.018 180.677C48.2429 180.677 46.2266 180.378 44.9689 179.785C43.5124 179.094 42.5873 177.916 42.1979 176.246C41.9991 175.457 41.9017 174.184 41.9017 172.433" fill="white"/>
<path d="M65.6884 151.123C65.6884 150.149 66.0739 149.302 66.8447 148.582C67.4898 147.989 68.2606 147.694 69.1573 147.694C70.1918 147.694 71.056 148.083 71.7416 148.86C72.3299 149.523 72.6261 150.3 72.6261 151.192C72.6261 152.24 72.2488 153.107 71.4901 153.798C70.8328 154.391 70.0458 154.686 69.137 154.686C68.1146 154.686 67.2585 154.297 66.5729 153.52C65.9846 152.857 65.6884 152.06 65.6884 151.127M61.0025 187.603C62.2927 187.489 63.2014 187.264 63.7329 186.924C64.7553 186.261 65.4572 184.96 65.8345 183.025C66.0171 182.109 66.1063 180.595 66.1063 178.492V157.754H72.2609V174.639C72.2609 178.595 72.05 181.45 71.6321 183.218C70.8491 186.564 69.0923 188.823 66.3579 189.997C65.1123 190.52 63.3272 190.823 61.0025 190.909V187.603Z" fill="white"/>
<path d="M78.2695 157.75H84.4241V180.055H78.2695V157.75ZM77.8516 151.119C77.8516 150.145 78.237 149.298 79.0079 148.578C79.653 147.985 80.4238 147.69 81.3204 147.69C82.355 147.69 83.2192 148.079 83.9048 148.856C84.4931 149.519 84.7893 150.296 84.7893 151.188C84.7893 152.231 84.4119 153.103 83.6533 153.794C82.996 154.387 82.2089 154.682 81.3001 154.682C80.2778 154.682 79.4217 154.293 78.7361 153.516C78.1478 152.853 77.8557 152.055 77.8557 151.123" fill="white"/>
<path d="M90.3921 169.868V150.996H96.5467V157.754H102.028V161.4H96.5467V171.652C96.5467 173.616 96.8064 174.921 97.3257 175.571C97.9545 176.361 98.9769 176.758 100.393 176.758H102.032V180.063H99.0905C97.3947 180.063 95.9868 179.916 94.8671 179.617C93.5079 179.249 92.4369 178.468 91.6539 177.265C91.021 176.332 90.6396 174.9 90.4976 172.965C90.4286 172.131 90.3921 171.1 90.3921 169.872" fill="white"/>
<path d="M104.466 179.973V176.246C106.036 176.88 107.793 177.2 109.74 177.2C111.197 177.2 112.325 176.946 113.124 176.439C113.769 176.03 114.09 175.436 114.09 174.659C114.09 174.094 113.879 173.587 113.461 173.133C113.165 172.81 112.556 172.307 111.631 171.627C108.941 169.68 107.221 168.265 106.462 167.389C105.411 166.174 104.888 164.799 104.888 163.257C104.888 161.265 105.618 159.747 107.075 158.704C108.515 157.66 110.511 157.137 113.063 157.137C114.56 157.137 116.199 157.313 117.98 157.668V161.289C116.792 160.839 115.465 160.61 114.008 160.61C111.643 160.61 110.458 161.4 110.458 162.983C110.458 163.801 110.816 164.517 111.53 165.123C111.878 165.405 112.937 166.117 114.702 167.262C116.37 168.35 117.623 169.459 118.463 170.588C119.262 171.648 119.66 172.883 119.66 174.295C119.66 178.546 116.719 180.673 110.836 180.673C108.288 180.673 106.166 180.44 104.47 179.973" fill="white"/>
<path d="M123.814 172.433V157.754H129.969V171.885C129.969 173.792 130.103 175.064 130.367 175.698C130.801 176.7 131.718 177.204 133.117 177.204C134.099 177.204 134.959 177.105 135.702 176.905V157.754H141.856V179.892C139 180.415 136.022 180.677 132.927 180.677C130.152 180.677 128.135 180.378 126.878 179.785C125.421 179.094 124.496 177.916 124.107 176.246C123.912 175.457 123.81 174.184 123.81 172.433" fill="white"/>
<path d="M82.002 3.42429C88.0268 3.42429 92.9278 8.36638 92.9278 14.4417C92.9278 20.5171 88.0268 25.4592 82.002 25.4592C75.9772 25.4592 71.0763 20.5171 71.0763 14.4417C71.0763 8.36638 75.9772 3.42429 82.002 3.42429ZM82.002 28.8794C89.8971 28.8794 96.3236 22.4031 96.3236 14.4417C96.3236 6.48037 89.8971 0 82.002 0C74.1069 0 67.6845 6.47628 67.6845 14.4417C67.6845 22.4072 74.1069 28.8794 82.002 28.8794Z" fill="#ED1C24"/>
<path d="M43.626 17.0437C48.0888 17.0437 51.7199 20.7053 51.7199 25.2055C51.7199 29.7058 48.0888 33.3673 43.626 33.3673C39.1632 33.3673 35.532 29.7058 35.532 25.2055C35.532 20.7053 39.1632 17.0437 43.626 17.0437ZM43.626 36.7916C49.9631 36.7916 55.1157 31.5959 55.1157 25.2055C55.1157 18.8152 49.9631 13.6194 43.626 13.6194C37.2888 13.6194 32.1363 18.8152 32.1363 25.2055C32.1363 31.5959 37.2888 36.7916 43.626 36.7916Z" fill="#ED1C24"/>
<path d="M120.374 17.0437C124.837 17.0437 128.468 20.7053 128.468 25.2055C128.468 29.7058 124.837 33.3673 120.374 33.3673C115.911 33.3673 112.28 29.7058 112.28 25.2055C112.28 20.7053 115.911 17.0437 120.374 17.0437ZM120.374 36.7916C126.711 36.7916 131.864 31.5959 131.864 25.2055C131.864 18.8152 126.711 13.6194 120.374 13.6194C114.037 13.6194 108.884 18.8152 108.884 25.2055C108.884 31.5959 114.037 36.7916 120.374 36.7916Z" fill="#ED1C24"/>
<path d="M104.426 44.1434C103.533 44.8348 102.689 45.5712 101.902 46.3649C97.3744 50.8692 94.6115 56.8996 94.1855 63.3881H69.8226C69.3926 56.8996 66.6297 50.8693 62.106 46.3608L60.9863 47.7232C60.6901 48.0832 60.4102 48.4432 60.1546 48.8032L59.972 49.0528C64.0981 53.2994 66.4674 59.0229 66.4836 65.1064V66.8124H97.5164V65.1064C97.5407 59.0229 99.91 53.3076 104.036 49.0651C104.823 48.2509 105.675 47.4859 106.592 46.7863C107.006 46.4672 107.428 46.1644 107.866 45.8781L109.456 44.8348C110.499 44.2621 111.578 43.7916 112.686 43.4029C115.14 42.5397 117.745 42.1265 120.378 42.1265C132.407 42.1265 142.295 51.5484 143.167 63.4577H115.964C115.692 57.9183 114.086 52.473 111.315 47.7027L109.72 48.7541C109.359 48.9955 109.002 49.2451 108.661 49.5069L108.471 49.6542C111.168 54.3385 112.617 59.702 112.617 65.1678V66.8779H146.628V65.1678C146.628 50.5747 134.85 38.7022 120.382 38.7022C116.958 38.7022 113.578 39.3772 110.438 40.67C109.351 41.116 108.3 41.6355 107.282 42.2288C107.201 42.2697 107.128 42.3147 107.051 42.3597C106.702 42.5724 106.349 42.7933 106.008 43.0224L104.47 44.1189L104.43 44.1475L104.426 44.1434Z" fill="#ED1C24"/>
<path d="M51.3831 65.1678C51.3831 59.6938 52.8315 54.3304 55.5376 49.646C56.1015 48.66 56.7263 47.7068 57.4039 46.7822C57.7081 46.3608 58.0327 45.9435 58.3654 45.5385L59.5703 44.0698C60.3777 43.1902 61.2419 42.4374 62.1344 41.6724C67.6358 36.9307 74.6384 34.2919 81.998 34.2919C89.3575 34.2919 96.3723 36.9348 101.866 41.6724L104.133 40.1586C104.349 40.0114 104.572 39.8682 104.803 39.725C98.5956 34.0465 90.5138 30.8677 81.998 30.8677C73.4821 30.8677 65.4044 34.0465 59.193 39.7168C58.3329 40.5023 57.5012 41.3369 56.7141 42.2206C56.3855 42.5929 56.0691 42.9693 55.7526 43.3497L54.5395 44.8266C53.8701 45.7512 53.2494 46.7045 52.6773 47.6904C49.9104 52.4607 48.3038 57.906 48.032 63.4454H20.8372C21.7095 51.5361 31.5926 42.1142 43.626 42.1142C46.2631 42.1142 48.8677 42.5315 51.3101 43.3866L53.1317 41.1692C53.2778 40.9932 53.4198 40.8214 53.5658 40.6537C50.4297 39.365 47.0583 38.6899 43.6219 38.6899C29.1502 38.6899 17.3765 50.5665 17.3765 65.1555V66.8697H51.3831V65.1555V65.1678Z" fill="#ED1C24"/>
<path d="M29.2841 96.5387C30.0631 96.8373 30.9435 96.9887 31.9293 96.9887C34.9356 96.9887 36.4368 95.2499 36.4368 91.7684C36.4368 90.001 36.0879 88.6714 35.3941 87.7836C34.7531 86.9613 33.6455 86.5481 32.0713 86.5481C31.2559 86.5481 30.3268 86.6381 29.2882 86.814V96.5346L29.2841 96.5387ZM27.4057 106.276V85.5826C29.1786 85.3126 30.7528 85.1776 32.1363 85.1776C33.7875 85.1776 35.0493 85.4353 35.9215 85.9508C37.6093 86.9613 38.4532 88.8555 38.4532 91.6334C38.4532 93.7649 37.9744 95.4136 37.021 96.5714C36.0392 97.7701 34.4245 98.3674 32.1809 98.3674C31.1342 98.3674 30.1686 98.2447 29.2882 98.0033V106.28H27.4097L27.4057 106.276Z" fill="black"/>
<path d="M42.1816 106.276V91.7684C43.6949 91.3552 45.6099 91.1383 47.9265 91.1097V92.3739C46.4903 92.382 45.192 92.5375 44.0317 92.8362V106.276H42.1816Z" fill="black"/>
<path d="M55.3712 92.3861C52.6449 92.3861 51.2817 94.534 51.2817 98.8256C51.2817 100.695 51.5332 102.197 52.0323 103.33C52.653 104.725 53.7727 105.421 55.3834 105.421C58.0936 105.421 59.4446 103.244 59.4446 98.8951C59.4446 94.5463 58.0854 92.3861 55.3672 92.3861M55.3672 91.1097C57.4079 91.1097 58.9171 91.8011 59.903 93.188C60.8483 94.5258 61.323 96.4282 61.323 98.8992C61.323 101.37 60.8483 103.26 59.903 104.61C58.9293 105.993 57.4201 106.689 55.3834 106.689C51.3953 106.689 49.3992 104.062 49.3992 98.8051C49.3992 96.3914 49.8739 94.5217 50.8192 93.1921C51.8091 91.8093 53.3265 91.1138 55.3672 91.1138" fill="black"/>
<path d="M73.3888 92.6807C72.4232 92.4761 71.6605 92.3739 71.0925 92.3739C69.9971 92.3739 69.1086 92.5907 68.4229 93.0203C67.6805 93.4867 67.0841 94.354 66.6297 95.6141C66.2402 96.6818 66.0455 97.9951 66.0455 99.5579C66.0455 103.44 67.3072 105.38 69.8307 105.38C71.0844 105.38 72.0337 104.975 72.6829 104.16C73.0074 103.739 73.2225 103.289 73.3239 102.814C73.3685 102.598 73.3929 102.258 73.3929 101.792V92.6848L73.3888 92.6807ZM73.3888 105.277C72.5733 106.214 71.344 106.681 69.7009 106.681C67.4452 106.681 65.9197 105.883 65.1245 104.283C64.4835 102.994 64.163 101.358 64.163 99.3738C64.163 97.1687 64.6255 95.3277 65.5546 93.859C66.7027 92.0261 68.4757 91.1097 70.8693 91.1097C72.2974 91.1097 73.7539 91.302 75.2388 91.6866V103.371C75.2388 105.531 75.1618 107.221 75.0035 108.436C74.8291 109.818 74.4802 110.849 73.9609 111.52C72.9222 112.887 70.9992 113.57 68.1876 113.57C67.575 113.57 66.9137 113.529 66.1996 113.443V112.138C66.8772 112.24 67.5466 112.294 68.2038 112.294C70.7192 112.294 72.2691 111.447 72.8654 109.753C73.2184 108.751 73.3929 107.409 73.3929 105.727V105.277H73.3888Z" fill="black"/>
<path d="M80.3427 106.276V91.7684C81.856 91.3552 83.7709 91.1383 86.0875 91.1097V92.3739C84.6513 92.382 83.353 92.5375 82.1927 92.8362V106.276H80.3427Z" fill="black"/>
<path d="M96.7901 97.9869C95.5081 98.126 94.2179 98.3715 92.9075 98.7151C91.6823 99.0342 90.8262 99.5211 90.3353 100.176C89.9093 100.736 89.6943 101.481 89.6943 102.405C89.6943 103.49 90.0026 104.263 90.6112 104.721C91.2319 105.179 92.2219 105.408 93.5729 105.408C94.7697 105.408 95.8408 105.269 96.7861 104.987V97.9869H96.7901ZM96.7901 96.7228V96.0641C96.7901 95.074 96.64 94.2967 96.3439 93.7362C95.8692 92.828 94.8549 92.3739 93.297 92.3739C91.7391 92.3739 90.2542 92.6971 89.0127 93.3435V91.842C90.4976 91.3552 91.9581 91.1138 93.3943 91.1138C95.3986 91.1138 96.8226 91.6006 97.6665 92.5743C98.1574 93.1348 98.4657 94.0144 98.5834 95.2131C98.628 95.6345 98.6524 96.2277 98.6524 96.9928V106.001C97.0295 106.451 95.2728 106.672 93.3781 106.672C91.2441 106.672 89.7673 106.325 88.9397 105.633C88.1526 104.979 87.759 103.956 87.759 102.561C87.759 100.196 88.7977 98.6415 90.8749 97.901C91.877 97.5451 93.727 97.1728 96.425 96.78L96.7861 96.7228H96.7901Z" fill="black"/>
<path d="M103.634 106.276V91.6866C105.886 91.302 107.619 91.1097 108.823 91.1097C110.661 91.1097 112.025 91.482 112.913 92.2307C114.463 91.482 115.968 91.1097 117.437 91.1097C119.765 91.1097 121.21 91.9648 121.778 93.6789C122.001 94.3622 122.11 95.6222 122.11 97.4673V106.276H120.26V97.1973C120.26 95.4095 120.102 94.2026 119.786 93.5767C119.388 92.783 118.556 92.3861 117.295 92.3861C116.106 92.3861 114.938 92.7421 113.789 93.4539V106.276H111.939V97.0582C111.919 96.0191 111.903 95.3481 111.883 95.0372C111.818 93.8958 111.489 93.1594 110.897 92.8198C110.406 92.5293 109.72 92.3861 108.836 92.3861C107.817 92.3861 106.698 92.5048 105.485 92.738V106.276H103.634Z" fill="black"/>
<path d="M134.74 97.9869C133.458 98.126 132.168 98.3715 130.858 98.7151C129.632 99.0342 128.776 99.5211 128.285 100.176C127.859 100.736 127.644 101.481 127.644 102.405C127.644 103.49 127.953 104.263 128.561 104.721C129.182 105.179 130.172 105.408 131.523 105.408C132.72 105.408 133.791 105.269 134.736 104.987V97.9869H134.74ZM134.74 96.7228V96.0641C134.74 95.074 134.59 94.2967 134.294 93.7362C133.819 92.828 132.805 92.3739 131.247 92.3739C129.689 92.3739 128.204 92.6971 126.963 93.3435V91.842C128.448 91.3552 129.908 91.1138 131.344 91.1138C133.349 91.1138 134.773 91.6006 135.617 92.5743C136.107 93.1348 136.416 94.0144 136.533 95.2131C136.578 95.6345 136.602 96.2277 136.602 96.9928V106.001C134.98 106.451 133.223 106.672 131.328 106.672C129.194 106.672 127.717 106.325 126.89 105.633C126.103 104.979 125.709 103.956 125.709 102.561C125.709 100.196 126.748 98.6415 128.825 97.901C129.827 97.5451 131.677 97.1728 134.375 96.78L134.736 96.7228H134.74Z" fill="black"/>
</svg>
