<svg id="Layer_1" data-name="Layer 1" xmlns="http://www.w3.org/2000/svg" viewBox="0 0 609 120.22"><defs><style>.cls-1{fill:#666766;}</style></defs><title>logo_w5_publicidade</title><path class="cls-1" d="M136.77,288.7a14,14,0,0,1-1,5.38,11.36,11.36,0,0,1-2.81,4.09,12.58,12.58,0,0,1-4.48,2.61,19.4,19.4,0,0,1-6.34.92h-4.52V316a0.7,0.7,0,0,1-.14.43,0.91,0.91,0,0,1-.43.29,4.17,4.17,0,0,1-.8.18,10.57,10.57,0,0,1-2.55,0,4.55,4.55,0,0,1-.81-0.18,0.82,0.82,0,0,1-.43-0.29,0.76,0.76,0,0,1-.12-0.43V279.34a2.13,2.13,0,0,1,.65-1.75,2.24,2.24,0,0,1,1.44-.52h8.51q1.29,0,2.47.11a23.29,23.29,0,0,1,2.8.46A11.53,11.53,0,0,1,131.5,279a10.39,10.39,0,0,1,2.84,2.38,10.26,10.26,0,0,1,1.8,3.27A12.73,12.73,0,0,1,136.77,288.7Zm-5.56.43a8.25,8.25,0,0,0-.91-4.05,6.32,6.32,0,0,0-2.24-2.43,7.56,7.56,0,0,0-2.76-1,18.71,18.71,0,0,0-2.78-.21h-4.88v15.94h4.76a11.07,11.07,0,0,0,4-.61A7.47,7.47,0,0,0,129,295a7.14,7.14,0,0,0,1.63-2.61A9.6,9.6,0,0,0,131.21,289.13Z" transform="translate(-112.35 -237.53)"/><path class="cls-1" d="M178.72,296.48a30.83,30.83,0,0,1-1.14,8.69,18.19,18.19,0,0,1-3.39,6.59,14.8,14.8,0,0,1-5.67,4.18,20.1,20.1,0,0,1-8,1.46,20.44,20.44,0,0,1-7.76-1.34,13.64,13.64,0,0,1-5.41-3.89,16.58,16.58,0,0,1-3.18-6.33,32.72,32.72,0,0,1-1-8.69,30,30,0,0,1,1.14-8.54,17.77,17.77,0,0,1,3.41-6.53,15.09,15.09,0,0,1,5.68-4.15A22.61,22.61,0,0,1,169,277.8a13.85,13.85,0,0,1,5.42,3.86,16.38,16.38,0,0,1,3.23,6.27A31.39,31.39,0,0,1,178.72,296.48Zm-5.59.37a31.11,31.11,0,0,0-.6-6.28,14.44,14.44,0,0,0-2-5,9.62,9.62,0,0,0-3.73-3.33A12.53,12.53,0,0,0,161,281a11.78,11.78,0,0,0-5.77,1.29,10.85,10.85,0,0,0-3.79,3.44,14.31,14.31,0,0,0-2.09,5,28.15,28.15,0,0,0-.63,6,33.31,33.31,0,0,0,.58,6.45,14.42,14.42,0,0,0,2,5.08,9.41,9.41,0,0,0,3.7,3.32,12.71,12.71,0,0,0,5.81,1.18,12,12,0,0,0,5.83-1.29,10.47,10.47,0,0,0,3.8-3.49,14.76,14.76,0,0,0,2.06-5.08A29.38,29.38,0,0,0,173.13,296.85Z" transform="translate(-112.35 -237.53)"/><path class="cls-1" d="M225.7,315.65a1.65,1.65,0,0,1-.37.69,1.55,1.55,0,0,1-.68.4,5.12,5.12,0,0,1-1.06.2Q223,317,222,317t-1.61-.06a5.17,5.17,0,0,1-1.09-.2,1.33,1.33,0,0,1-.65-0.4,1.89,1.89,0,0,1-.34-0.69l-8.32-30H210l-7.68,30a1.59,1.59,0,0,1-.31.69,1.33,1.33,0,0,1-.61.4,4.55,4.55,0,0,1-1,.2q-0.63.06-1.61,0.06t-1.69-.06a5.21,5.21,0,0,1-1.11-.2,1.44,1.44,0,0,1-.66-0.4,1.5,1.5,0,0,1-.32-0.69l-10.51-36.71a5.57,5.57,0,0,1-.2-1.11,0.71,0.71,0,0,1,.25-0.61,1.6,1.6,0,0,1,.84-0.28q0.58-.06,1.57-0.06t1.51,0a2.91,2.91,0,0,1,.84.17,0.74,0.74,0,0,1,.4.34,2.08,2.08,0,0,1,.17.55l8.94,33.3h0L207.27,278a2.29,2.29,0,0,1,.23-0.57,0.88,0.88,0,0,1,.45-0.35,3.49,3.49,0,0,1,.88-0.18,14.58,14.58,0,0,1,1.49-.06,12.06,12.06,0,0,1,1.37.06,3.37,3.37,0,0,1,.81.18,0.88,0.88,0,0,1,.45.35,2.27,2.27,0,0,1,.23.57l9.12,33.24h0.06L231.11,278c0.06-.2.12-0.38,0.18-0.54a0.66,0.66,0,0,1,.38-0.35,3.18,3.18,0,0,1,.83-0.18,13.29,13.29,0,0,1,1.43-.06,10.92,10.92,0,0,1,1.46.08,1.52,1.52,0,0,1,.78.29,0.74,0.74,0,0,1,.23.61,6.9,6.9,0,0,1-.17,1.11Z" transform="translate(-112.35 -237.53)"/><path class="cls-1" d="M266.3,314.63a6.74,6.74,0,0,1-.06,1,2,2,0,0,1-.22.69,1,1,0,0,1-.35.4,0.83,0.83,0,0,1-.45.12H246.14a2.17,2.17,0,0,1-1.34-.48,2,2,0,0,1-.63-1.67V279.21a2,2,0,0,1,.63-1.67,2.18,2.18,0,0,1,1.34-.48H265a0.84,0.84,0,0,1,.45.12,0.86,0.86,0,0,1,.32.4,3.14,3.14,0,0,1,.2.69,5.83,5.83,0,0,1,.08,1,5.41,5.41,0,0,1-.08,1,2.83,2.83,0,0,1-.2.68,0.87,0.87,0,0,1-.32.38,0.83,0.83,0,0,1-.45.12H249.46v12.47h13.33a0.77,0.77,0,0,1,.45.14,1.14,1.14,0,0,1,.34.38,2,2,0,0,1,.2.68,7.34,7.34,0,0,1,.06,1,6.42,6.42,0,0,1-.06,1,1.93,1.93,0,0,1-.2.65,0.87,0.87,0,0,1-.34.35,0.93,0.93,0,0,1-.45.11H249.46v14.22h15.76a0.84,0.84,0,0,1,.45.12,1.1,1.1,0,0,1,.35.38,1.88,1.88,0,0,1,.22.68A7.27,7.27,0,0,1,266.3,314.63Z" transform="translate(-112.35 -237.53)"/><path class="cls-1" d="M302,316a1,1,0,0,1-.09.43,0.72,0.72,0,0,1-.4.31,3.43,3.43,0,0,1-.86.18,14,14,0,0,1-1.47.06,11.23,11.23,0,0,1-1.31-.06,2.84,2.84,0,0,1-.81-0.2,1.11,1.11,0,0,1-.48-0.38,2.42,2.42,0,0,1-.29-0.61l-3.66-9.37q-0.64-1.6-1.34-2.93a9.46,9.46,0,0,0-1.64-2.3,6.77,6.77,0,0,0-2.24-1.5,8.05,8.05,0,0,0-3.1-.54h-3.53V316a0.7,0.7,0,0,1-.14.43,0.91,0.91,0,0,1-.43.29,4.17,4.17,0,0,1-.8.18,10.57,10.57,0,0,1-2.55,0,4.55,4.55,0,0,1-.81-0.18,0.82,0.82,0,0,1-.43-0.29,0.76,0.76,0,0,1-.12-0.43v-36.8a2,2,0,0,1,.63-1.67,2.18,2.18,0,0,1,1.34-.48h8.45q1.51,0,2.5.08t1.8,0.17a15.22,15.22,0,0,1,4.07,1.26,9.66,9.66,0,0,1,3,2.18,8.8,8.8,0,0,1,1.8,3,11.29,11.29,0,0,1,.6,3.76,11.1,11.1,0,0,1-.54,3.58,8.65,8.65,0,0,1-1.55,2.8,10.26,10.26,0,0,1-2.43,2.1,15.56,15.56,0,0,1-3.16,1.51,7.51,7.51,0,0,1,1.78,1.09,9.23,9.23,0,0,1,1.49,1.58,14.75,14.75,0,0,1,1.31,2.12q0.61,1.2,1.23,2.7l3.56,8.76q0.43,1.11.55,1.55A2.83,2.83,0,0,1,302,316Zm-8-27.92a7.11,7.11,0,0,0-1-3.95,5.9,5.9,0,0,0-3.5-2.32,10,10,0,0,0-1.74-.31q-1-.09-2.53-0.09h-4.45v13.39h5.16a11.46,11.46,0,0,0,3.61-.51,7.12,7.12,0,0,0,2.53-1.41,5.49,5.49,0,0,0,1.49-2.13A7.33,7.33,0,0,0,294,288.09Z" transform="translate(-112.35 -237.53)"/><path class="cls-1" d="M332.31,314.63a6.74,6.74,0,0,1-.06,1,2,2,0,0,1-.22.69,1,1,0,0,1-.35.4,0.83,0.83,0,0,1-.45.12H312.16a2.17,2.17,0,0,1-1.34-.48,2,2,0,0,1-.63-1.67V279.21a2,2,0,0,1,.63-1.67,2.18,2.18,0,0,1,1.34-.48H331a0.84,0.84,0,0,1,.45.12,0.86,0.86,0,0,1,.32.4,3.14,3.14,0,0,1,.2.69,5.83,5.83,0,0,1,.08,1,5.41,5.41,0,0,1-.08,1,2.83,2.83,0,0,1-.2.68,0.87,0.87,0,0,1-.32.38,0.83,0.83,0,0,1-.45.12H315.47v12.47h13.33a0.77,0.77,0,0,1,.45.14,1.14,1.14,0,0,1,.34.38,2,2,0,0,1,.2.68,7.34,7.34,0,0,1,.06,1,6.42,6.42,0,0,1-.06,1,1.93,1.93,0,0,1-.2.65,0.87,0.87,0,0,1-.34.35,0.93,0.93,0,0,1-.45.11H315.47v14.22h15.76a0.84,0.84,0,0,1,.45.12,1.1,1.1,0,0,1,.35.38,1.88,1.88,0,0,1,.22.68A7.27,7.27,0,0,1,332.31,314.63Z" transform="translate(-112.35 -237.53)"/><path class="cls-1" d="M372,296.35a27.85,27.85,0,0,1-1.32,9,16.38,16.38,0,0,1-3.86,6.39,15.92,15.92,0,0,1-6.22,3.79,27.27,27.27,0,0,1-8.79,1.26h-8.42a2.17,2.17,0,0,1-1.34-.48,2,2,0,0,1-.63-1.67V279.21a2,2,0,0,1,.63-1.67,2.18,2.18,0,0,1,1.34-.48h9a25,25,0,0,1,8.72,1.34,15.91,15.91,0,0,1,6,3.84,16.41,16.41,0,0,1,3.66,6.07A24.32,24.32,0,0,1,372,296.35Zm-5.56.22a21.68,21.68,0,0,0-.8-6,12.9,12.9,0,0,0-2.5-4.81,11.57,11.57,0,0,0-4.32-3.16,17,17,0,0,0-6.73-1.14h-5.38v30.93h5.44a18.87,18.87,0,0,0,6.42-1,10.59,10.59,0,0,0,4.36-2.92,12.69,12.69,0,0,0,2.63-4.93A24.93,24.93,0,0,0,366.48,296.57Z" transform="translate(-112.35 -237.53)"/><path class="cls-1" d="M421.74,305.42a11.93,11.93,0,0,1-.48,3.46,10.24,10.24,0,0,1-1.34,2.84,9.88,9.88,0,0,1-2.07,2.21,12,12,0,0,1-2.73,1.6,15.64,15.64,0,0,1-3.26,1,22,22,0,0,1-4,.32H397.5a2.17,2.17,0,0,1-1.34-.48,2,2,0,0,1-.63-1.67V279.21a2,2,0,0,1,.63-1.67,2.18,2.18,0,0,1,1.34-.48h9a21,21,0,0,1,5.84.68,10.33,10.33,0,0,1,3.79,2,8.13,8.13,0,0,1,2.29,3.16,11.1,11.1,0,0,1,.77,4.24,10.63,10.63,0,0,1-.34,2.7,8.94,8.94,0,0,1-1,2.38,8.1,8.1,0,0,1-1.66,2,8.77,8.77,0,0,1-2.29,1.41,9.63,9.63,0,0,1,3,1.12,9.25,9.25,0,0,1,2.47,2.07,9.68,9.68,0,0,1,1.67,2.95A10.82,10.82,0,0,1,421.74,305.42Zm-8-17.79a8,8,0,0,0-.4-2.61,4.84,4.84,0,0,0-1.26-2,5.64,5.64,0,0,0-2.24-1.24,12.6,12.6,0,0,0-3.65-.43h-5.46v12.87h6a8.53,8.53,0,0,0,3.31-.54,5.93,5.93,0,0,0,2.08-1.44,5.6,5.6,0,0,0,1.21-2.12A8.27,8.27,0,0,0,413.79,287.63Zm2.4,18.09a8.05,8.05,0,0,0-.57-3.13,6,6,0,0,0-1.66-2.27,7.32,7.32,0,0,0-2.73-1.4,15.1,15.1,0,0,0-4.12-.48h-6.32v14h7.66a10.41,10.41,0,0,0,3.16-.43,7.1,7.1,0,0,0,2.38-1.28,5.86,5.86,0,0,0,1.61-2.1A6.88,6.88,0,0,0,416.18,305.72Z" transform="translate(-112.35 -237.53)"/><path class="cls-1" d="M443,301.36V316a0.77,0.77,0,0,1-.12.43,0.82,0.82,0,0,1-.43.29,4.52,4.52,0,0,1-.83.18,10.32,10.32,0,0,1-2.52,0,5,5,0,0,1-.82-0.18,0.83,0.83,0,0,1-.44-0.29,0.77,0.77,0,0,1-.12-0.43V301.36l-11.24-22.43a5,5,0,0,1-.42-1.11,0.62,0.62,0,0,1,.15-0.61,1.45,1.45,0,0,1,.83-0.28q0.6-.06,1.61-0.06a14.59,14.59,0,0,1,1.49.06,4.88,4.88,0,0,1,.91.17,1.07,1.07,0,0,1,.51.31,2.58,2.58,0,0,1,.32.51l5.5,11.43q0.77,1.63,1.53,3.41t1.56,3.59h0.06q0.7-1.75,1.45-3.49t1.51-3.43L449,278a1.54,1.54,0,0,1,.26-0.52,1,1,0,0,1,.46-0.32,3.76,3.76,0,0,1,.81-0.17,11.78,11.78,0,0,1,1.32-.06,15.26,15.26,0,0,1,1.74.08,1.68,1.68,0,0,1,.88.29,0.61,0.61,0,0,1,.17.61,4.53,4.53,0,0,1-.42,1.08Z" transform="translate(-112.35 -237.53)"/><path class="cls-1" d="M602.1,270c-1.29,2.54-1.33,3.42.48,3.42,14.14,0.22,31.59,4.19,28.81,19.86-2.67,15.11-20.4,25.62-39.2,26.6-1.22.77-1.49,3-.24,3.42,19.21-.55,45.47-13.81,48.85-32.89,3-16.77-12.78-22.83-27.57-24.16l-2.48-.22c-1.66-.11-2-0.66-1.33-2l3.33-6.62c1.09-2.1,1.79-2.65,4.61-3l23.24-3a25.16,25.16,0,0,0,5.54-6.84,0.8,0.8,0,0,0-.9-1l-29.63,3.75c-2,.22-2.74,1.21-3.65,3L602.1,270h0ZM498.44,240.8c5.22,0.5,6.05,3.89,7.41,9,4.69,17.46,9,34.92,13.55,52.38,0.91,3.64,3.55,14.95,4.63,20.24a4.6,4.6,0,0,0,1.82.38,3.14,3.14,0,0,0,1.6-.38c5.8-10.45,16.67-26.52,23.09-35.69,2.14,8.79,6.3,24.49,8.07,35.69a3.61,3.61,0,0,0,1.7.38,3.15,3.15,0,0,0,1.6-.38c7.93-13.46,15.5-25.77,23.68-38.58l13.57-21.23c11.15-17.46,13.06-21.23,19.52-21.86l2.46-.25c1.09-1,1.3-2.64.36-3-3.35.25-7,.38-11.86,0.38-3.93,0-7.32-.12-12.09-0.38a2,2,0,0,0-.74,3l3.62,0.25c2.63,0.12,4,1.13,3.59,2.89-0.31,1.51-3.56,6.91-6.13,11.43-1.35,2.26-11.46,19-15.22,25-5.49,8.92-11.08,17.71-16.79,26.5-2.24-9.55-4.76-19-7.1-28.64a8.59,8.59,0,0,1-.27-3,12.93,12.93,0,0,1,1.75-3c2.79-4.4,10.34-15.33,13.94-20,3.84-5.15,7.26-10.8,12.66-11.18l3.72-.25c1-1,1.17-2.64.36-3-3,.25-8.06.38-12.24,0.38-4.69,0-8.46-.12-11.83-0.38a2.17,2.17,0,0,0-.87,3l3.75,0.25c4,0.25,4.35,1.63-2.38,12.31-4.17,6.78-7.42,11.56-10.82,16.45-2-7.79-3.9-15.7-5.31-21.86-1.26-5.65-1-6.53,4.07-6.91l3.35-.25c1-1,1.17-2.64.36-3-3,.25-7.68.38-14,0.38-5.07,0-9.86-.12-13.48-0.38a2.11,2.11,0,0,0-.87,3l3,0.25c4.23,0.38,5.6,3,6.7,6.91,2.77,10,5.42,20.1,7.81,30.15a9.65,9.65,0,0,1,.35,3.27,28.58,28.58,0,0,1-3.07,5.15c-4.73,7-9.58,14.07-13.89,20.35-4.21-15.45-8.49-31.15-12.39-46.85-2.12-8.92-3.47-15.32-3.17-16.83,0.23-1.13,1.9-1.88,4.62-2.14l3-.25c0.94-.88,1.42-2.64.36-3-4.49.25-11,.38-14.52,0.38-3.93,0-9.6-.12-13-0.38a2.26,2.26,0,0,0-1,3l3,0.25h0Z" transform="translate(-112.35 -237.53)"/><path class="cls-1" d="M660.6,354.93l2.24,1.94c2.08,1.79,4.16.72,6.14-2-2.5,0-5.28,0-8.38,0h0Z" transform="translate(-112.35 -237.53)"/><path class="cls-1" d="M645.26,339.2c-1.25-1.29-2.55-2.66-3.9-4.09h0l3.79,4.16,0.11-.08h0Z" transform="translate(-112.35 -237.53)"/><path class="cls-1" d="M708.86,267.7a25.83,25.83,0,0,1,12.49-17.81c-7-1.39-13.09.41-19.1,4a47.93,47.93,0,0,1,6.61,13.76h0Z" transform="translate(-112.35 -237.53)"/><path class="cls-1" d="M710.42,298.62a8.74,8.74,0,0,0,2.16-7.17c-1.69-.74-3.44-1.62-5.2-2.6a40.17,40.17,0,0,1-3.64,6.48c2.24,1.23,4.48,2.34,6.68,3.29h0Z" transform="translate(-112.35 -237.53)"/><path class="cls-1" d="M675.1,273.28c-8.36-2.26-15.32-5.65-29.14-11.82,16.48,8.84,23.51,11.69,32.61,16.79a30.67,30.67,0,0,1-3.47-5h0Z" transform="translate(-112.35 -237.53)"/><path class="cls-1" d="M702,277.37a22.84,22.84,0,0,1-6.86-2l-3.71-1.58a38.61,38.61,0,0,0,5.3,6.23,29.77,29.77,0,0,0,5.27-2.68h0Z" transform="translate(-112.35 -237.53)"/><path class="cls-1" d="M706.81,287.9a25.63,25.63,0,0,0,2-8.47,32.07,32.07,0,0,1-.49-6.72,26,26,0,0,1-2.46,2.43c-0.16,1.29-1.07,2.18-3,2.25a33.49,33.49,0,0,1-5.81,2.92,62.46,62.46,0,0,0,9.82,7.59h0Zm-61.44,34.74c-1.27,0-2.6-.12-4-0.26a78.54,78.54,0,0,1-18.78,5.08,31.49,31.49,0,0,0-12,3.69c-0.83,2.28-1.58,4.39-2.28,6.32A147.35,147.35,0,0,1,642.27,329c1-1.85,2-4,3.11-6.36h0Zm39.86-15.91a60.28,60.28,0,0,0-12.53,2.5c-7.4,7.54-13.29,13.25-25.62,13.42-0.82,2.22-1.58,4.2-2.34,6a60.86,60.86,0,0,0,23.61-8.34,18.2,18.2,0,0,0-.32,3.07c13.41-8.87,27.1-17.94,34.21-27.59a97.54,97.54,0,0,1-9-5.15c3.75,6.71,4.28,15.06-8,16.11h0ZM668,324.82c-0.1,3.57-.05,8.44-0.21,12.92a68.33,68.33,0,0,1,12.31-12.41,28.54,28.54,0,0,1,1.52-4.58c8.35-12.1,22.39-15.42,28.3-21.58-2.21-.86-4.49-1.86-6.78-3-8,11.22-21.9,20.47-35.14,28.62h0ZM667.68,340c-0.06,1-.13,2-0.22,2.9-1.48,15-9.35,9.53-22-3.54l-0.11.09c7.51,8.26,8.94,9.92,14.9,15.12,3.7-.38,6.94-0.78,9.79-1.24,3.61-5.94,6.81-16.65,9-24.19A68.69,68.69,0,0,0,667.68,340h0Zm35.22-45.16a37.37,37.37,0,0,0,3.7-6.46,67.84,67.84,0,0,1-10.74-7.66,60.28,60.28,0,0,1-9.08,2.42,18.36,18.36,0,0,1,3.3,3,92.94,92.94,0,0,0,12.83,8.71h0Zm9.62-3.8a16,16,0,0,0-1-3.4,28.12,28.12,0,0,1-2.07-5.29,32,32,0,0,1-1.89,6c1.65,1,3.32,1.91,4.94,2.68h0ZM689,272.73c-4.57-2-9.68-4.44-14.66-7.11a21.6,21.6,0,0,0,1.45,3.9c3.32,2.1,6.77,4.08,10.32,6-2.81-.43-5.3-0.89-7.62-1.41a55.55,55.55,0,0,0,7.72,8.66l0.26,0.16a63.79,63.79,0,0,0,9.15-2.45,32.59,32.59,0,0,1-6.62-7.75h0ZM673.06,265c-6.57-3.6-12.78-7.65-17-11.87a85,85,0,0,0,17.09,14.75,11.26,11.26,0,0,1-.08-2.88h0Zm35.12,6.67c-1-5.08-3.2-10.72-6.42-17.38a77.21,77.21,0,0,0-6.58,4.64c-12.37,9.6-2.47,2.38,4.51,6.79,3.08,1.94,5.86,5.83,6.14,8.6a27,27,0,0,0,2.34-2.64h0Z" transform="translate(-112.35 -237.53)"/><path class="cls-1" d="M646.44,320.26q-2.18,1-4.4,1.85c1.23,0.11,2.39.17,3.49,0.19l0.91-2h0Z" transform="translate(-112.35 -237.53)"/><path class="cls-1" d="M671.65,309.56c-8,2.58-15.56,6.41-23.41,9.91l-1,2.83c10.08-.26,15.49-4.64,24.44-12.74h0Z" transform="translate(-112.35 -237.53)"/><path class="cls-1" d="M609.31,331.89c-6.19,3.67-13.29,9.71-32.43,19.38,11.84-5.85,21.51-10,29.58-13.1,0.85-1.91,1.78-4,2.85-6.28h0Z" transform="translate(-112.35 -237.53)"/></svg>