<svg width="29" height="27" viewBox="0 0 29 27" fill="none" xmlns="http://www.w3.org/2000/svg">
<path d="M20.8317 22.9279H7.89673C6.60792 22.9279 5.55344 21.9478 5.55344 20.7499V14.0526C5.55344 12.8548 6.60792 11.8747 7.89673 11.8747H20.8317C22.1205 11.8747 23.175 12.8548 23.175 14.0526V20.7499C23.175 21.9478 22.1205 22.9279 20.8317 22.9279Z" stroke="#AAAAAA" stroke-width="1.2" stroke-miterlimit="10" stroke-linecap="round" stroke-linejoin="round"/>
<path d="M19.6015 11.8747V8.81463C19.6015 6.12484 17.2582 3.94688 14.3642 3.94688C11.4702 3.94688 9.12695 6.12484 9.12695 8.81463V11.8747" stroke="#AAAAAA" stroke-width="1.2" stroke-miterlimit="10" stroke-linecap="round" stroke-linejoin="round"/>
<path d="M14.364 17.3959C15.1534 17.3959 15.7934 16.801 15.7934 16.0673C15.7934 15.3336 15.1534 14.7387 14.364 14.7387C13.5745 14.7387 12.9346 15.3336 12.9346 16.0673C12.9346 16.801 13.5745 17.3959 14.364 17.3959Z" fill="#AAAAAA"/>
<path d="M14.3642 16.9276V19.0838" stroke="#AAAAAA" stroke-width="1.2" stroke-miterlimit="10" stroke-linecap="round" stroke-linejoin="round"/>
</svg>
