<?xml version="1.0" encoding="utf-8"?>
<!-- Generator: Adobe Illustrator 24.0.0, SVG Export Plug-In . SVG Version: 6.00 Build 0)  -->
<svg version="1.1" id="Layer_1" xmlns="http://www.w3.org/2000/svg" xmlns:xlink="http://www.w3.org/1999/xlink" x="0px" y="0px"
	 viewBox="0 0 390 126.3" style="enable-background:new 0 0 390 126.3;" xml:space="preserve">
<style type="text/css">
	.st0{fill-rule:evenodd;clip-rule:evenodd;fill:#2F6B71;}
	.st1{fill-rule:evenodd;clip-rule:evenodd;fill:#EDEDED;}
	.st2{fill:#575756;}
	.st3{fill:#2F6B71;}
	.st4{fill-rule:evenodd;clip-rule:evenodd;fill:#FFFFFF;}
	.st5{enable-background:new    ;}
</style>
<title>logo-familia-airstage.svg</title>
<path class="st0" d="M0,14.4v58.5c0,8,6.5,14.4,14.4,14.4h76V0h-76C6.5,0,0,6.5,0,14.4z"/>
<path class="st1" d="M390,14.4v72.9H90.4V0h285.2C383.5,0,390,6.5,390,14.4z"/>
<path class="st2" d="M107.8,33.2V17.7c1.4-0.2,2.7-0.3,4.1-0.3c1.1-0.1,2.1,0.2,3.1,0.6c1.3,0.8,2,2.2,2,4.3
	c0.1,1.2-0.2,2.4-0.9,3.4c-0.9,1.2-2.3,1.8-3.8,1.7c-0.7,0-1.4-0.1-2-0.3v6.1H107.8z M110.4,25.7c0.5,0.2,1,0.3,1.6,0.3
	c0.8,0.1,1.7-0.4,2.1-1.1c0.3-0.8,0.5-1.6,0.5-2.4c0.1-0.9-0.2-1.8-0.6-2.6c-0.5-0.6-1.3-0.9-2.2-0.8c-0.4,0-0.9,0-1.3,0.1
	L110.4,25.7z"/>
<path class="st2" d="M119.3,33.2V22.3c1.8-0.3,3.5-0.4,5.3-0.5v1.5c-0.9,0-1.9,0.1-2.8,0.2v9.7H119.3z"/>
<path class="st2" d="M130.2,21.9c1.4-0.1,2.8,0.5,3.7,1.6c0.8,1.3,1.2,2.7,1.2,4.2c0.1,1.5-0.3,3-1.2,4.3c-1.9,2-5,2.1-7.1,0.3
	c-0.1-0.1-0.2-0.2-0.3-0.3c-0.8-1.3-1.3-2.8-1.2-4.3c-0.1-1.5,0.3-2.9,1.2-4.2C127.4,22.4,128.8,21.8,130.2,21.9z M130.2,23.3
	c-0.8,0-1.6,0.5-1.9,1.3c-0.3,1-0.5,2-0.4,3.1c0,1.1,0.1,2.2,0.4,3.2c0.3,0.8,1,1.3,1.9,1.3c0.8,0.1,1.6-0.5,1.9-1.3
	c0.3-1,0.5-2.1,0.4-3.2c0-1.1-0.1-2.1-0.4-3.1C131.8,23.8,131.1,23.3,130.2,23.3z"/>
<path class="st2" d="M143.5,32.5c-0.7,0.7-1.7,1.1-2.7,1c-2.7,0-4-1.7-4-5.1c-0.1-1.6,0.4-3.2,1.2-4.6c0.8-1.3,2.2-2,4.3-2
	c1.3,0,2.5,0.2,3.7,0.4v8.8c0,1.2-0.1,2.5-0.2,3.7c-0.2,1.4-1,2.6-2.2,3.2c-1.2,0.5-2.4,0.7-3.6,0.7c-0.4,0-1,0-1.6-0.1v-1.5
	c0.5,0.1,1,0.1,1.5,0.1c0.9,0.1,1.8-0.1,2.5-0.6c0.8-0.5,1.1-1.7,1.1-3.5L143.5,32.5z M143.5,23.4c-0.4-0.1-0.8-0.1-1.2-0.1
	c-0.6,0-1.1,0.1-1.6,0.5c-0.5,0.5-0.9,1.2-1.1,2c-0.2,0.9-0.3,1.8-0.3,2.7c0,2.5,0.6,3.7,1.9,3.7c0.8,0,1.6-0.6,1.8-1.4
	c0.2-0.4,0.3-0.8,0.4-1.2c0-0.2,0-0.5,0-1L143.5,23.4z"/>
<path class="st2" d="M149.2,33.2V22.3c1.8-0.3,3.5-0.4,5.3-0.5v1.5c-0.9,0-1.9,0.1-2.8,0.2v9.7H149.2z"/>
<path class="st2" d="M161.8,26.2v-0.4c0-0.6-0.1-1.1-0.4-1.6c-0.5-0.6-1.3-0.9-2.1-0.8c-1,0-2,0.2-2.9,0.5v-1.5
	c1.1-0.3,2.1-0.4,3.2-0.4c2,0,3.3,0.4,3.9,1.3c0.4,0.5,0.6,1.1,0.6,1.8c0,0.3,0,0.8,0,1.4v6.8c-1.5,0.3-3,0.4-4.6,0.4
	c-1.1,0.1-2.2-0.1-3.2-0.6c-0.9-0.5-1.3-1.5-1.2-2.5c-0.1-1.2,0.5-2.4,1.5-3c1.1-0.6,2.3-1,3.5-1.1
	C160.6,26.3,161.1,26.3,161.8,26.2z M161.8,27.5l-0.2,0.1c-0.9,0.1-1.8,0.4-2.6,0.7c-0.8,0.4-1.3,1.1-1.2,2c0,1.2,0.8,1.9,2.2,1.9
	c0.6,0,1.2-0.1,1.8-0.2V27.5z"/>
<path class="st2" d="M167.4,33.2V22.3c1.4-0.3,2.8-0.4,4.3-0.4c1-0.1,2.1,0.2,3,0.6c1.1-0.4,2.3-0.6,3.5-0.6c1.8,0,2.9,0.5,3.4,1.5
	c0.3,0.9,0.5,1.9,0.4,2.8v7h-2.5v-6.5c0-0.9,0-1.7-0.2-2.5c-0.1-0.3-0.3-0.6-0.6-0.8c-0.3-0.1-0.6-0.2-0.9-0.2
	c-0.6,0-1.3,0.1-1.8,0.4v9.6h-2.5v-6.5c0-0.8,0-1.7-0.3-2.5c-0.1-0.3-0.3-0.6-0.6-0.8c-0.3-0.1-0.6-0.2-0.9-0.2
	c-0.6,0-1.2,0.1-1.8,0.2v9.7H167.4z"/>
<path class="st2" d="M190.9,26.2v-0.4c0-0.6-0.1-1.1-0.4-1.6c-0.5-0.6-1.3-0.9-2.1-0.8c-1,0-2,0.2-2.9,0.5v-1.5
	c1.1-0.3,2.1-0.4,3.2-0.4c2,0,3.3,0.4,3.9,1.3c0.4,0.5,0.6,1.1,0.6,1.8c0,0.3,0,0.8,0,1.4v6.8c-1.5,0.3-3,0.4-4.6,0.4
	c-1.1,0.1-2.2-0.1-3.2-0.6c-0.9-0.5-1.3-1.5-1.2-2.5c-0.1-1.2,0.5-2.4,1.5-3c1.1-0.6,2.3-1,3.5-1.1
	C189.7,26.3,190.2,26.3,190.9,26.2z M190.9,27.5l-0.2,0.1c-0.9,0.1-1.8,0.4-2.6,0.7c-0.8,0.4-1.3,1.1-1.2,2c0,1.2,0.7,1.9,2.2,1.9
	c0.6,0,1.2-0.1,1.8-0.2V27.5z"/>
<path class="st3" d="M107.8,69.9V42.5H123v3.3h-9.6v8.1h7.8v3.3h-7.8v12.8H107.8z"/>
<path class="st3" d="M134.3,57.5v-0.7c0.1-1-0.1-1.9-0.6-2.8c-0.6-0.8-1.8-1.2-3.5-1.2c-1.6,0-3.2,0.2-4.7,0.6v-3.1
	c1.9-0.4,3.7-0.6,5.6-0.5c3.9,0,6.5,0.8,7.6,2.5c0.5,0.9,0.8,1.9,0.9,2.9c0.1,0.5,0.1,1.4,0.1,2.6v12c-2.8,0.5-5.7,0.7-8.5,0.7
	c-1.5,0-3-0.1-4.5-0.4c-1.2-0.3-2.3-1-3.1-2c-0.5-0.9-0.7-1.8-0.7-2.8c-0.1-2.1,1-4.1,2.7-5.3C127.3,59,130.2,58.1,134.3,57.5z
	 M134.3,60.2l-0.5,0.1c-1.3,0.2-2.5,0.7-3.7,1.3c-0.6,0.3-1,0.8-1.3,1.3c-0.3,0.6-0.4,1.2-0.4,1.9c-0.1,0.7,0.2,1.4,0.7,1.9
	c0.7,0.5,1.6,0.8,2.5,0.7c0.9,0,1.8-0.1,2.7-0.3L134.3,60.2z"/>
<path class="st3" d="M145,69.9V50.6c2.6-0.5,5.2-0.7,7.9-0.8c1.9-0.1,3.8,0.3,5.5,1c1.9-0.7,4-1,6.1-1c3.3,0,5.4,0.8,6.4,2.3
	c0.4,0.7,0.7,1.6,0.8,2.4c0.1,0.8,0.1,1.7,0.1,2.5v12.9h-5.4V58.8c0.1-1.6-0.1-3.3-0.6-4.8c-0.1-0.3-0.4-0.6-0.7-0.8
	c-0.5-0.3-1-0.4-1.6-0.3c-0.8,0-1.6,0.1-2.4,0.4v16.7h-5.5V58.8c0.1-1.4,0-2.9-0.3-4.3c-0.1-0.5-0.4-1-0.9-1.4
	c-0.5-0.3-1-0.4-1.6-0.3c-0.8,0-1.6,0.1-2.4,0.3v16.8H145z"/>
<path class="st3" d="M176.9,69.9V50.3h5.4v19.6H176.9z M177.3,47.6l2.8-6.5h5.3l-4.3,6.5H177.3z"/>
<path class="st3" d="M187.9,69.9V40.4h5.5v29.5H187.9z"/>
<path class="st3" d="M201.4,41.5c0.9,0,1.7,0.3,2.3,1c1.1,1.3,1,3.2-0.2,4.3c-0.6,0.5-1.3,0.8-2.1,0.8c-0.9,0-1.7-0.3-2.3-1
	c-0.5-0.6-0.8-1.3-0.8-2.1C198.4,42.8,199.8,41.5,201.4,41.5L201.4,41.5z M198.8,69.9V50.3h5.5v19.6H198.8z"/>
<path class="st3" d="M219.2,57.5v-0.7c0.1-1-0.1-1.9-0.6-2.8c-0.6-0.8-1.8-1.2-3.5-1.2c-1.6,0-3.2,0.2-4.7,0.6v-3.1
	c1.9-0.4,3.7-0.6,5.6-0.5c3.9,0,6.5,0.8,7.6,2.5c0.5,0.9,0.9,1.9,0.9,2.9c0,0.5,0.1,1.4,0.1,2.6v12c-2.8,0.5-5.7,0.7-8.5,0.7
	c-1.5,0-3-0.1-4.5-0.4c-1.2-0.3-2.3-1-3.1-2c-0.5-0.9-0.7-1.8-0.7-2.8c-0.1-2.1,1-4.1,2.7-5.3C212.2,59,215.1,58.1,219.2,57.5z
	 M219.2,60.2l-0.5,0.1c-1.3,0.2-2.5,0.7-3.7,1.3c-0.6,0.3-1,0.8-1.3,1.3c-0.3,0.6-0.4,1.2-0.4,1.9c-0.1,0.7,0.2,1.4,0.7,1.9
	c0.7,0.5,1.6,0.8,2.5,0.7c0.9,0,1.8-0.1,2.7-0.3L219.2,60.2z"/>
<path class="st3" d="M251.5,64.3H242l-1.7,5.6h-4.7l9.2-27.5h5.2l9,27.5h-5.9L251.5,64.3z M250.6,61.1l-3.7-12.9L243,61.1H250.6z"/>
<path class="st3" d="M264,41.5c0.9,0,1.7,0.3,2.3,1c1.1,1.3,1,3.2-0.2,4.3c-0.6,0.5-1.3,0.8-2.1,0.8c-0.9,0-1.7-0.3-2.3-1
	c-0.5-0.6-0.8-1.3-0.8-2.1C261,42.8,262.3,41.5,264,41.5L264,41.5z M261.3,69.9V50.3h5.5v19.6H261.3z"/>
<path class="st3" d="M272,69.9V50.6c3.4-0.5,6.9-0.7,10.3-0.8v3c-2,0.1-3.6,0.2-4.9,0.4v16.7H272z"/>
<path class="st3" d="M284,69.8v-3.3c1.5,0.6,3.1,0.9,4.7,0.8c1,0.1,2.1-0.2,3-0.7c0.5-0.3,0.9-0.9,0.9-1.6c0-0.5-0.2-1-0.6-1.3
	c-0.5-0.5-1-0.9-1.6-1.3c-1.6-1.1-3.2-2.3-4.6-3.7c-0.9-1-1.4-2.3-1.4-3.6c-0.1-1.6,0.7-3.1,1.9-4c1.6-1,3.4-1.5,5.3-1.4
	c1.5,0,2.9,0.2,4.4,0.5v3.2c-1.1-0.4-2.3-0.6-3.5-0.6c-2.1,0-3.1,0.7-3.1,2.1c0,0.7,0.4,1.4,1,1.9c0.3,0.2,1.2,0.9,2.8,1.9
	c1.3,0.8,2.4,1.8,3.3,2.9c0.7,0.9,1.1,2.1,1.1,3.2c0,3.7-2.6,5.6-7.8,5.6C287.7,70.5,285.8,70.3,284,69.8z"/>
<path class="st3" d="M300.8,44.4h5.5v5.9h4.9v3.2h-4.9v9c-0.1,1.2,0.1,2.4,0.7,3.4c0.7,0.7,1.7,1.1,2.7,1h1.5v2.9h-2.6
	c-1.3,0-2.5-0.1-3.8-0.4c-1.2-0.3-2.2-1-2.8-2.1c-0.6-1.2-1-2.5-1-3.8c-0.1-0.7-0.1-1.6-0.1-2.7L300.8,44.4z"/>
<path class="st3" d="M324.9,57.5v-0.7c0.1-1-0.1-1.9-0.6-2.8c-0.6-0.8-1.8-1.2-3.5-1.2c-1.6,0-3.2,0.2-4.7,0.6v-3.1
	c1.9-0.4,3.7-0.6,5.6-0.5c3.9,0,6.5,0.8,7.6,2.5c0.5,0.9,0.9,1.9,0.9,2.9c0,0.5,0.1,1.4,0.1,2.6v12c-2.8,0.5-5.7,0.7-8.5,0.7
	c-1.5,0-3-0.1-4.5-0.4c-1.2-0.3-2.3-1-3.1-2c-0.5-0.9-0.7-1.8-0.7-2.8c-0.1-2.1,0.9-4.1,2.7-5.3C317.8,59,320.7,58.1,324.9,57.5z
	 M324.9,60.2l-0.5,0.1c-1.3,0.2-2.5,0.7-3.7,1.3c-0.6,0.3-1,0.8-1.3,1.3c-0.3,0.6-0.4,1.2-0.4,1.9c-0.1,0.7,0.2,1.4,0.7,1.9
	c0.7,0.5,1.6,0.8,2.5,0.7c0.9,0,1.8-0.1,2.7-0.3V60.2z"/>
<path class="st3" d="M345.8,69.1c-0.3,0.3-0.7,0.6-1.1,0.7c-1,0.4-2.1,0.6-3.2,0.6c-4.8,0-7.2-2.9-7.2-8.7c0-3.6,0.7-6.5,2.1-8.7
	c1.5-2.2,4-3.3,7.7-3.3c2.4,0,4.8,0.3,7.1,0.8v15.7c0.1,2.2-0.1,4.3-0.5,6.5c-0.4,2.5-2,4.7-4.2,5.8c-2.1,0.8-4.3,1.2-6.5,1.1
	c-1,0-2,0-3.2-0.2v-3.1c0.9,0.2,1.8,0.2,2.7,0.2c1.4,0.1,2.8-0.2,4.1-0.7c1.4-0.8,2.1-2.7,2.1-5.5L345.8,69.1z M345.8,53.1
	c-0.5-0.2-1-0.2-1.5-0.2c-0.8,0-1.7,0.3-2.3,0.8c-0.9,1-1.4,2.2-1.6,3.5c-0.3,1.4-0.4,2.9-0.4,4.4c0,2.4,0.3,4,0.8,4.9
	c0.4,0.6,1.1,1,1.8,1c1.3,0,2.3-0.9,2.8-2.7c0.3-1.5,0.5-3,0.4-4.5L345.8,53.1z"/>
<path class="st3" d="M360.7,61.1c0,1.3,0.2,2.5,0.6,3.8c0.4,1,1.2,1.9,2.3,2.2c1.1,0.3,2.2,0.4,3.4,0.4c1.6,0,3.2-0.3,4.6-1v3.2
	c-1.9,0.6-3.9,0.9-5.9,0.8c-3.6,0-6.3-0.7-7.9-2.2s-2.5-3.9-2.5-7.2c-0.1-2.7,0.6-5.4,2-7.7c3-4,8.7-4.7,12.7-1.7
	c0.1,0.1,0.2,0.2,0.3,0.3c1.3,1.4,2,3.2,2.1,5.1c0.1,1.3,0.2,2.7,0.1,4L360.7,61.1z M360.7,58.2h6.9c0-1-0.1-1.9-0.3-2.9
	c-0.1-0.8-0.5-1.5-1.1-2.1c-0.5-0.4-1.2-0.6-1.8-0.5C362.1,52.8,360.9,54.6,360.7,58.2z"/>
<path class="st4" d="M21.1,56.8c0,1-0.8,1.8-1.9,1.8s-1.9-0.8-1.9-1.8V44.1c0-3.1,2.5-5.5,5.5-5.5s5.6,2.5,5.6,5.5v16.4
	c0,1,0.8,1.9,1.8,1.9c1,0,1.9-0.8,1.9-1.8c0,0,0,0,0,0v-26c0-3.1,2.5-5.5,5.6-5.5c3.1,0,5.5,2.5,5.5,5.5v33.5c0,1,0.8,1.8,1.8,1.8
	c1,0,1.9-0.8,1.9-1.8V30.2c0-3.1,2.5-5.6,5.5-5.6c3.1,0,5.6,2.5,5.6,5.6v26.6c0,1,0.8,1.8,1.8,1.8c1,0,1.9-0.8,1.9-1.8V40.4
	c0-3.1,2.5-5.5,5.5-5.5c3.1,0,5.6,2.5,5.6,5.5v16.4c0,1-0.8,1.9-1.8,1.9s-1.9-0.8-1.9-1.8c0,0,0,0,0,0V40.4c0-1-0.8-1.9-1.8-1.9
	s-1.9,0.8-1.9,1.8c0,0,0,0,0,0v16.4c0,3.1-2.5,5.6-5.5,5.6c-3.1,0-5.6-2.5-5.6-5.5c0,0,0,0,0,0V30.2c0-1-0.8-1.9-1.8-1.9
	c-1,0-1.9,0.8-1.9,1.9v37.8c0,3.1-2.5,5.6-5.5,5.6c-3.1,0-5.6-2.5-5.6-5.6V34.6c0-1-0.8-1.8-1.8-1.8c-1,0-1.9,0.8-1.9,1.8v26
	c0,3.1-2.5,5.6-5.5,5.6c-3.1,0-5.6-2.5-5.6-5.6l0,0V44.1c0-1-0.8-1.8-1.9-1.8s-1.9,0.8-1.9,1.8L21.1,56.8z"/>
<path class="st4" d="M67.4,24c-2,0-3.6,1.6-3.6,3.6s1.6,3.6,3.6,3.6c2,0,3.6-1.6,3.6-3.6c0,0,0,0,0,0C71,25.6,69.4,24,67.4,24z"/>
<path class="st4" d="M52.6,13.7c-2,0-3.6,1.6-3.6,3.6c0,2,1.6,3.6,3.6,3.6s3.6-1.6,3.6-3.6l0,0C56.2,15.4,54.6,13.7,52.6,13.7z"/>
<path class="st4" d="M37.8,18.1c-2,0-3.6,1.6-3.6,3.6s1.6,3.6,3.6,3.6s3.6-1.6,3.6-3.6l0,0C41.4,19.7,39.8,18.1,37.8,18.1z"/>
<path class="st4" d="M23,27.7c-2,0-3.6,1.6-3.6,3.6c0,2,1.6,3.6,3.6,3.6s3.6-1.6,3.6-3.6c0,0,0,0,0,0C26.6,29.3,25,27.7,23,27.7
	C23,27.7,23,27.7,23,27.7z"/>
<g class="st5">
	<path class="st3" d="M19.5,119v-17.4h9.1v1.4h-6.9v6h5.5v1.4h-5.5v7.2h7.2v1.4H19.5z"/>
	<path class="st3" d="M30,119l4.4-6.4l-4-6h2.3l3,4.7l2.9-4.7h2l-3.9,5.9l4.3,6.5h-2.3l-3.2-5.2L32,119H30z"/>
	<path class="st3" d="M43.2,124.9v-18.2c1.5-0.3,2.9-0.5,4.3-0.5c2.2,0,3.6,0.6,4.4,1.9c0.7,1.1,1,2.7,1,4.6c0,2-0.4,3.6-1.3,4.9
		c-0.8,1.2-2.1,1.7-3.7,1.7c-1,0-1.9-0.3-2.6-0.8v6.4H43.2z M45.3,117c0.7,0.7,1.5,1.1,2.4,1.1c1.1,0,1.9-0.5,2.4-1.6
		c0.5-1,0.7-2.2,0.7-3.7c0-1.8-0.3-3.2-0.9-4.1c-0.5-0.8-1.4-1.1-2.7-1.1c-0.6,0-1.2,0.1-1.8,0.2V117z"/>
	<path class="st3" d="M55.1,113.1c0-2.3,0.4-4,1.3-5.2c0.9-1.2,2.2-1.8,4-1.8c2.3,0,3.7,1.1,4.4,3.3c0.3,0.9,0.4,2.1,0.4,3.6h-7.9
		c0,1.3,0.2,2.2,0.5,3c0.5,1.3,1.8,2,3.7,2c1.2,0,2.3-0.2,3.1-0.6v1.4c-1,0.3-2.1,0.5-3.4,0.5c-2.3,0-4-0.6-4.9-1.8
		C55.5,116.5,55.1,115,55.1,113.1z M57.3,111.7h5.8c0-1-0.2-1.8-0.3-2.4c-0.4-1.2-1.1-1.9-2.3-1.9c-1.2,0-2.1,0.6-2.6,1.8
		C57.6,109.8,57.4,110.7,57.3,111.7z"/>
	<path class="st3" d="M68.2,119v-12.2c1.6-0.3,3.4-0.5,5.4-0.5v1.3c-1.2,0-2.3,0.1-3.3,0.2V119H68.2z"/>
	<path class="st3" d="M75.6,103.2c0-0.4,0.1-0.7,0.4-0.9c0.2-0.2,0.5-0.3,0.9-0.3c0.4,0,0.7,0.1,1,0.4c0.2,0.3,0.3,0.5,0.3,0.9
		c0,0.4-0.1,0.7-0.4,1c-0.2,0.2-0.5,0.3-0.9,0.3c-0.4,0-0.7-0.1-1-0.4C75.7,103.9,75.6,103.6,75.6,103.2z M75.9,119v-12.4H78V119
		H75.9z"/>
	<path class="st3" d="M81.1,113.1c0-2.3,0.4-4,1.3-5.2c0.9-1.2,2.2-1.8,4-1.8c2.3,0,3.7,1.1,4.4,3.3c0.3,0.9,0.4,2.1,0.4,3.6h-7.9
		c0,1.3,0.2,2.2,0.5,3c0.5,1.3,1.8,2,3.7,2c1.2,0,2.3-0.2,3.1-0.6v1.4c-1,0.3-2.1,0.5-3.4,0.5c-2.3,0-4-0.6-4.9-1.8
		C81.5,116.5,81.1,115,81.1,113.1z M82.8,104.7l2.8-3.3h1.7l2.8,3.3h-1.9l-1.8-2.3l-1.8,2.3H82.8z M83.3,111.7h5.8
		c0-1-0.2-1.8-0.3-2.4c-0.4-1.2-1.1-1.9-2.3-1.9c-1.2,0-2.1,0.6-2.6,1.8C83.6,109.8,83.4,110.7,83.3,111.7z"/>
	<path class="st3" d="M94.2,119v-12.3c2-0.3,3.6-0.5,5-0.5c2.2,0,3.5,0.7,4.1,2c0.3,0.6,0.4,1.7,0.4,3.2v7.6h-2.1v-7.5
		c0-1.5-0.1-2.5-0.4-3c-0.3-0.7-1.1-1-2.2-1c-0.9,0-1.7,0.1-2.6,0.3V119H94.2z"/>
	<path class="st3" d="M106.6,113.1c0-2.1,0.5-3.8,1.4-5c0.9-1.2,2.4-1.9,4.3-1.9c0.7,0,1.4,0.1,2,0.4v1.4c-0.6-0.3-1.2-0.5-1.9-0.5
		c-1.4,0-2.4,0.6-2.9,1.7c-0.5,1-0.7,2.3-0.7,3.9c0,1.8,0.3,3.1,0.9,3.9c0.6,0.7,1.4,1,2.6,1c0.9,0,1.6-0.2,2.3-0.5v1.4
		c-0.7,0.3-1.5,0.4-2.6,0.4c-1.9,0-3.3-0.6-4.2-1.7C107,116.6,106.6,115.1,106.6,113.1z"/>
	<path class="st3" d="M117,103.2c0-0.4,0.1-0.7,0.4-0.9c0.2-0.2,0.5-0.3,0.9-0.3c0.4,0,0.7,0.1,1,0.4c0.2,0.3,0.3,0.5,0.3,0.9
		c0,0.4-0.1,0.7-0.4,1c-0.2,0.2-0.5,0.3-0.9,0.3c-0.4,0-0.7-0.1-1-0.4C117.1,103.9,117,103.6,117,103.2z M117.3,119v-12.4h2.1V119
		H117.3z"/>
	<path class="st3" d="M122.3,115.7c0-1.5,0.6-2.6,1.7-3.3c0.8-0.5,2.2-0.9,4.1-1.2c0.2,0,0.8-0.1,1.7-0.3v-0.5
		c0-0.8-0.1-1.5-0.4-1.9c-0.4-0.7-1.2-1-2.5-1c-1.1,0-2.3,0.2-3.5,0.7v-1.5c1.2-0.4,2.4-0.5,3.7-0.5c1.9,0,3.3,0.4,4,1.3
		c0.4,0.5,0.6,1.2,0.7,2.1c0,0.3,0,0.9,0,1.5v7.6c-0.6,0.2-1.3,0.3-2.3,0.4c-0.9,0.1-1.8,0.2-2.6,0.2c-1.5,0-2.6-0.2-3.4-0.7
		C122.8,118.1,122.3,117.2,122.3,115.7z M124.5,115.6c0,1.6,1,2.4,3,2.4c0.9,0,1.7-0.1,2.4-0.3v-5.4c-1.2,0.2-2.2,0.3-2.9,0.6
		c-0.9,0.3-1.6,0.6-1.9,1.1C124.7,114.4,124.5,115,124.5,115.6z"/>
	<path class="st3" d="M134.6,118.8v-1.5c0.8,0.5,1.9,0.7,3.1,0.7c2,0,3.1-0.7,3.1-2c0-0.5-0.2-0.9-0.5-1.3c-0.3-0.3-0.6-0.5-0.9-0.7
		c-0.3-0.2-0.7-0.4-1.2-0.6c-1.2-0.6-2-1.1-2.4-1.6c-0.6-0.6-0.9-1.4-0.9-2.3c0-1.2,0.4-2,1.3-2.6c0.7-0.5,1.7-0.7,2.9-0.7
		c0.8,0,1.7,0.1,2.7,0.4v1.4c-0.8-0.4-1.7-0.5-2.6-0.5c-1.6,0-2.4,0.6-2.4,1.8c0,0.5,0.2,1,0.5,1.3c0.3,0.3,1,0.8,2.1,1.3
		c0.9,0.4,1.4,0.8,1.7,1c0.6,0.4,1,0.9,1.2,1.3c0.2,0.4,0.3,0.9,0.3,1.6c0,2.4-1.6,3.5-4.8,3.5C136.5,119.3,135.5,119.1,134.6,118.8
		z"/>
	<path class="st3" d="M150.2,115.7c0-1.5,0.6-2.6,1.7-3.3c0.8-0.5,2.2-0.9,4.1-1.2c0.2,0,0.8-0.1,1.7-0.3v-0.5
		c0-0.8-0.1-1.5-0.4-1.9c-0.4-0.7-1.2-1-2.5-1c-1.1,0-2.3,0.2-3.5,0.7v-1.5c1.2-0.4,2.4-0.5,3.7-0.5c1.9,0,3.3,0.4,4,1.3
		c0.4,0.5,0.6,1.2,0.7,2.1c0,0.3,0,0.9,0,1.5v7.6c-0.6,0.2-1.3,0.3-2.3,0.4c-0.9,0.1-1.8,0.2-2.6,0.2c-1.5,0-2.6-0.2-3.4-0.7
		C150.7,118.1,150.2,117.2,150.2,115.7z M152.4,115.6c0,1.6,1,2.4,3,2.4c0.9,0,1.7-0.1,2.4-0.3v-5.4c-1.2,0.2-2.2,0.3-2.9,0.6
		c-0.9,0.3-1.6,0.6-1.9,1.1C152.6,114.4,152.4,115,152.4,115.6z"/>
	<path class="st3" d="M163.8,119v-18.7h2.1V119H163.8z"/>
	<path class="st3" d="M169,113.1c0-2.3,0.4-4,1.3-5.2c0.9-1.2,2.2-1.8,4-1.8c2.3,0,3.7,1.1,4.4,3.3c0.3,0.9,0.4,2.1,0.4,3.6h-7.9
		c0,1.3,0.2,2.2,0.5,3c0.5,1.3,1.8,2,3.7,2c1.2,0,2.3-0.2,3.1-0.6v1.4c-1,0.3-2.1,0.5-3.4,0.5c-2.3,0-4-0.6-4.9-1.8
		C169.4,116.5,169,115,169,113.1z M171.2,111.7h5.8c0-1-0.2-1.8-0.3-2.4c-0.4-1.2-1.1-1.9-2.3-1.9c-1.2,0-2.1,0.6-2.6,1.8
		C171.5,109.8,171.3,110.7,171.2,111.7z M173.1,104.7l1.8-3.3h2.4l-2.7,3.3H173.1z"/>
	<path class="st3" d="M182.1,119v-12.3c1.9-0.3,3.5-0.5,4.6-0.5c1.5,0,2.6,0.3,3.3,0.8c1.3-0.5,2.7-0.8,4-0.8c2,0,3.3,0.7,3.8,2
		c0.2,0.6,0.4,1.7,0.4,3.2v7.6h-2.1v-7.5c0-1.5-0.1-2.4-0.3-3c-0.3-0.7-1-1-2-1c-0.8,0-1.7,0.2-2.5,0.6V119h-2.1v-7.6
		c0-1.4-0.1-2.4-0.3-2.9c-0.3-0.7-1-1-2-1c-0.8,0-1.6,0.1-2.5,0.3V119H182.1z"/>
	<path class="st3" d="M206.9,113.2c0-2,0.4-3.6,1.1-4.8c0.5-0.8,1.2-1.4,2-1.8c0.6-0.3,1.4-0.4,2.1-0.4s1.5,0.2,2.3,0.4v-6.4h2.1
		v18.5c-0.6,0.2-1.3,0.3-2.1,0.4c-0.8,0.1-1.6,0.2-2.3,0.2c-2,0-3.5-0.6-4.2-1.7C207.3,116.6,206.9,115.1,206.9,113.2z M209.1,113.1
		c0,1.9,0.3,3.3,1,4c0.5,0.6,1.3,0.9,2.3,0.9c0.7,0,1.4-0.1,2.1-0.2V108c-0.7-0.4-1.3-0.5-2-0.5c-1.2,0-2,0.5-2.6,1.6
		C209.4,110,209.1,111.4,209.1,113.1z"/>
	<path class="st3" d="M219.5,115.7c0-1.5,0.6-2.6,1.7-3.3c0.8-0.5,2.2-0.9,4.1-1.2c0.2,0,0.8-0.1,1.7-0.3v-0.5
		c0-0.8-0.1-1.5-0.4-1.9c-0.4-0.7-1.2-1-2.5-1c-1.1,0-2.3,0.2-3.5,0.7v-1.5c1.2-0.4,2.4-0.5,3.7-0.5c1.9,0,3.3,0.4,4,1.3
		c0.4,0.5,0.6,1.2,0.7,2.1c0,0.3,0,0.9,0,1.5v7.6c-0.6,0.2-1.3,0.3-2.3,0.4c-0.9,0.1-1.8,0.2-2.6,0.2c-1.5,0-2.6-0.2-3.4-0.7
		C220,118.1,219.5,117.2,219.5,115.7z M221.7,115.6c0,1.6,1,2.4,3,2.4c0.9,0,1.7-0.1,2.4-0.3v-5.4c-1.2,0.2-2.2,0.3-2.9,0.6
		c-0.9,0.3-1.6,0.6-1.9,1.1C221.9,114.4,221.7,115,221.7,115.6z"/>
	<path class="st3" d="M231.8,118.8v-1.5c0.8,0.5,1.9,0.7,3.1,0.7c2,0,3.1-0.7,3.1-2c0-0.5-0.2-0.9-0.5-1.3c-0.3-0.3-0.6-0.5-0.9-0.7
		c-0.3-0.2-0.7-0.4-1.2-0.6c-1.2-0.6-2-1.1-2.4-1.6c-0.6-0.6-0.9-1.4-0.9-2.3c0-1.2,0.4-2,1.3-2.6c0.7-0.5,1.7-0.7,2.9-0.7
		c0.8,0,1.7,0.1,2.7,0.4v1.4c-0.8-0.4-1.7-0.5-2.6-0.5c-1.6,0-2.4,0.6-2.4,1.8c0,0.5,0.2,1,0.5,1.3c0.3,0.3,1,0.8,2.1,1.3
		c0.9,0.4,1.4,0.8,1.7,1c0.6,0.4,1,0.9,1.2,1.3c0.2,0.4,0.3,0.9,0.3,1.6c0,2.4-1.6,3.5-4.8,3.5C233.7,119.3,232.7,119.1,231.8,118.8
		z"/>
	<path class="st3" d="M247.6,113.1c0-2.3,0.4-4,1.3-5.2c0.9-1.2,2.2-1.8,4-1.8c2.3,0,3.7,1.1,4.4,3.3c0.3,0.9,0.4,2.1,0.4,3.6h-7.9
		c0,1.3,0.2,2.2,0.4,3c0.5,1.3,1.8,2,3.7,2c1.2,0,2.3-0.2,3.1-0.6v1.4c-1,0.3-2.1,0.5-3.4,0.5c-2.3,0-4-0.6-4.9-1.8
		C248,116.5,247.6,115,247.6,113.1z M249.8,111.7h5.8c0-1-0.1-1.8-0.3-2.4c-0.4-1.2-1.1-1.9-2.3-1.9c-1.2,0-2.1,0.6-2.6,1.8
		C250.1,109.8,249.9,110.7,249.8,111.7z"/>
	<path class="st3" d="M259,119l4.4-6.4l-4-6h2.3l3,4.7l2.9-4.7h2l-3.9,5.9l4.3,6.5h-2.3l-3.2-5.2L261,119H259z"/>
	<path class="st3" d="M272.2,124.9v-18.2c1.5-0.3,2.9-0.5,4.3-0.5c2.2,0,3.6,0.6,4.4,1.9c0.7,1.1,1,2.7,1,4.6c0,2-0.4,3.6-1.3,4.9
		c-0.8,1.2-2.1,1.7-3.7,1.7c-1,0-1.9-0.3-2.6-0.8v6.4H272.2z M274.4,117c0.7,0.7,1.5,1.1,2.4,1.1c1.1,0,1.9-0.5,2.4-1.6
		c0.5-1,0.7-2.2,0.7-3.7c0-1.8-0.3-3.2-0.9-4.1c-0.5-0.8-1.4-1.1-2.7-1.1c-0.6,0-1.2,0.1-1.8,0.2V117z"/>
	<path class="st3" d="M284.2,113.1c0-2.3,0.4-4,1.3-5.2c0.9-1.2,2.2-1.8,4-1.8c2.3,0,3.7,1.1,4.4,3.3c0.3,0.9,0.4,2.1,0.4,3.6h-7.9
		c0,1.3,0.2,2.2,0.4,3c0.5,1.3,1.8,2,3.7,2c1.2,0,2.3-0.2,3.1-0.6v1.4c-1,0.3-2.1,0.5-3.4,0.5c-2.3,0-4-0.6-4.9-1.8
		C284.5,116.5,284.2,115,284.2,113.1z M286.3,111.7h5.8c0-1-0.1-1.8-0.3-2.4c-0.4-1.2-1.1-1.9-2.3-1.9c-1.2,0-2.1,0.6-2.6,1.8
		C286.6,109.8,286.4,110.7,286.3,111.7z"/>
	<path class="st3" d="M296.4,113.1c0-2.1,0.5-3.8,1.4-5c0.9-1.2,2.4-1.9,4.3-1.9c0.7,0,1.4,0.1,2,0.4v1.4c-0.6-0.3-1.2-0.5-1.9-0.5
		c-1.4,0-2.4,0.6-2.9,1.7c-0.5,1-0.7,2.3-0.7,3.9c0,1.8,0.3,3.1,0.9,3.9c0.6,0.7,1.4,1,2.6,1c0.9,0,1.6-0.2,2.3-0.5v1.4
		c-0.7,0.3-1.5,0.4-2.6,0.4c-1.9,0-3.3-0.6-4.2-1.7C296.8,116.6,296.4,115.1,296.4,113.1z"/>
	<path class="st3" d="M306.9,114.2v-11h2.1v3.3h3.3v1.4H309v6.6c0,1.3,0.2,2.1,0.6,2.5c0.3,0.3,0.7,0.5,1.2,0.6c0.2,0,0.5,0,0.9,0
		h0.7v1.4h-1.1c-0.9,0-1.6-0.1-2.2-0.2c-1.1-0.3-1.7-1-2-2.1C306.9,116,306.9,115.2,306.9,114.2z"/>
	<path class="st3" d="M314,115.7c0-1.5,0.6-2.6,1.7-3.3c0.8-0.5,2.2-0.9,4.1-1.2c0.2,0,0.8-0.1,1.7-0.3v-0.5c0-0.8-0.1-1.5-0.4-1.9
		c-0.4-0.7-1.2-1-2.5-1c-1.1,0-2.3,0.2-3.5,0.7v-1.5c1.2-0.4,2.4-0.5,3.7-0.5c1.9,0,3.3,0.4,4,1.3c0.4,0.5,0.6,1.2,0.7,2.1
		c0,0.3,0,0.9,0,1.5v7.6c-0.6,0.2-1.3,0.3-2.3,0.4c-0.9,0.1-1.8,0.2-2.6,0.2c-1.5,0-2.6-0.2-3.4-0.7
		C314.4,118.1,314,117.2,314,115.7z M316.1,115.6c0,1.6,1,2.4,3,2.4c0.9,0,1.7-0.1,2.4-0.3v-5.4c-1.2,0.2-2.2,0.3-2.9,0.6
		c-0.9,0.3-1.6,0.6-1.9,1.1C316.3,114.4,316.1,115,316.1,115.6z"/>
	<path class="st3" d="M327.4,114.2v-11h2.1v3.3h3.3v1.4h-3.3v6.6c0,1.3,0.2,2.1,0.6,2.5c0.3,0.3,0.7,0.5,1.2,0.6c0.2,0,0.5,0,0.9,0
		h0.7v1.4h-1.1c-0.9,0-1.6-0.1-2.2-0.2c-1.1-0.3-1.7-1-2-2.1C327.5,116,327.4,115.2,327.4,114.2z"/>
	<path class="st3" d="M335.2,103.2c0-0.4,0.1-0.7,0.4-0.9c0.2-0.2,0.5-0.3,0.9-0.3c0.4,0,0.7,0.1,1,0.4c0.2,0.3,0.3,0.5,0.3,0.9
		c0,0.4-0.1,0.7-0.4,1c-0.2,0.2-0.5,0.3-0.9,0.3c-0.4,0-0.7-0.1-1-0.4C335.3,103.9,335.2,103.6,335.2,103.2z M335.5,119v-12.4h2.1
		V119H335.5z"/>
	<path class="st3" d="M339.9,106.5h2.2l2.3,7c0.3,0.9,0.6,2,0.9,3.3c0.3-1.2,0.6-2.3,0.9-3.2l2.3-7.1h2L346,119h-1.8L339.9,106.5z"
		/>
	<path class="st3" d="M351.4,115.7c0-1.5,0.6-2.6,1.7-3.3c0.8-0.5,2.2-0.9,4.1-1.2c0.2,0,0.8-0.1,1.7-0.3v-0.5
		c0-0.8-0.1-1.5-0.4-1.9c-0.4-0.7-1.2-1-2.5-1c-1.1,0-2.3,0.2-3.5,0.7v-1.5c1.2-0.4,2.4-0.5,3.7-0.5c1.9,0,3.3,0.4,4,1.3
		c0.4,0.5,0.6,1.2,0.7,2.1c0,0.3,0,0.9,0,1.5v7.6c-0.6,0.2-1.3,0.3-2.3,0.4c-0.9,0.1-1.8,0.2-2.6,0.2c-1.5,0-2.6-0.2-3.4-0.7
		C351.8,118.1,351.4,117.2,351.4,115.7z M353.5,115.6c0,1.6,1,2.4,3,2.4c0.9,0,1.7-0.1,2.4-0.3v-5.4c-1.2,0.2-2.2,0.3-2.9,0.6
		c-0.9,0.3-1.6,0.6-1.9,1.1C353.7,114.4,353.5,115,353.5,115.6z"/>
	<path class="st3" d="M363.7,118.8v-1.5c0.8,0.5,1.9,0.7,3.1,0.7c2,0,3.1-0.7,3.1-2c0-0.5-0.2-0.9-0.5-1.3c-0.3-0.3-0.6-0.5-0.9-0.7
		c-0.3-0.2-0.7-0.4-1.2-0.6c-1.2-0.6-2-1.1-2.4-1.6c-0.6-0.6-0.9-1.4-0.9-2.3c0-1.2,0.4-2,1.3-2.6c0.7-0.5,1.7-0.7,2.9-0.7
		c0.8,0,1.7,0.1,2.7,0.4v1.4c-0.8-0.4-1.7-0.5-2.6-0.5c-1.6,0-2.4,0.6-2.4,1.8c0,0.5,0.2,1,0.5,1.3c0.3,0.3,1,0.8,2.1,1.3
		c0.9,0.4,1.4,0.8,1.7,1c0.6,0.4,1,0.9,1.2,1.3c0.2,0.4,0.3,0.9,0.3,1.6c0,2.4-1.6,3.5-4.8,3.5C365.6,119.3,364.5,119.1,363.7,118.8
		z"/>
</g>
</svg>
