<svg id="レイヤー_1" data-name="レイヤー 1" xmlns="http://www.w3.org/2000/svg" viewBox="0 0 1471.93 252.16"><defs><style>.cls-1{fill:red;}.cls-2{fill:#222;}.cls-3{fill:#666;}</style></defs><title>logo-fujitsu-fujitsu-general-brazil</title><path class="cls-1" d="M294.92,48.4C291.1,45,285,43,278.86,43a26.23,26.23,0,1,0,0,52.45A25.48,25.48,0,0,0,299,86.3V71.83c-2.58,4.51-7.8,10.24-12.52,12.21a19.33,19.33,0,0,1-7.63,1.61,16.36,16.36,0,0,1-16.59-16.38,16.53,16.53,0,0,1,16.59-16.5,16.73,16.73,0,0,1,11.64,4.83c3.12,3,8,9.36,10.31,11.86a32.56,32.56,0,0,0,56.41-22.07c0-18-14.64-32.91-32.6-32.91-10.46,0-19.65,5.45-25.63,13.09V47.11c4.56-12.41,12.75-22.31,25.63-22.31a22.46,22.46,0,1,1-14.52,39.6c-4.82-3.79-10.18-11.78-15.19-16" transform="translate(-81.16 -14.47)"/><path class="cls-1" d="M81.16,102.71h72v20.06s-3.69-7.91-11.49-7.92H108.37v34.61H144.5V167.8s-1.16-5.85-9.88-5.86H108.37v47.28c0,7,7.55,11.1,7.55,11.1H81.64s7.19-3.63,7.19-11.1V115C88.84,107.14,81.16,102.71,81.16,102.71Z" transform="translate(-81.16 -14.47)"/><path class="cls-1" d="M262.2,102.75h36.64s-8.21,3.89-8.21,10.24V223.32c0,37.3-37.39,43.41-39.34,43.3,3.18-2.05,18.72-15.28,18.78-43.3V113C270.08,107,262.2,102.75,262.2,102.75Z" transform="translate(-81.16 -14.47)"/><path class="cls-1" d="M304,102.74h36.75s-8.16,3.92-8.16,10.4v96.11c0,6.87,8.16,11.17,8.16,11.17H304s8.16-4.26,8.16-11.17V113.15C312.16,106.66,304,102.74,304,102.74Z" transform="translate(-81.16 -14.47)"/><path class="cls-1" d="M348.11,102.73H429L422.1,124.1s-2.06-9-9.86-9H395.46v94.11c0,6,7.9,11.12,7.9,11.12h-36s7.81-4.65,7.8-11.12V115.12H354.9c-5.74,0-14,10.76-14,10.76Z" transform="translate(-81.16 -14.47)"/><path class="cls-1" d="M564,102.74h35.41s-7.57,4-7.58,10.38v71.22c0,28.94-24,37.85-40.65,37.85s-42.42-9-42.39-37.85V113.11c0-6.36-7.8-10.38-7.8-10.38h36.43s-8.11,3.9-8.11,10.38v71.23c0,15.18,10.07,25.12,21.87,25.12S572,199.11,572,184.34V113.11C572,106.75,564,102.74,564,102.74Z" transform="translate(-81.16 -14.47)"/><path class="cls-1" d="M219.76,102.74h36.07s-7.67,4.18-7.67,10.5c0,0,0,71,0,71,0,29.07-25.12,38.21-41.94,38.21-16.52,0-42.4-9.28-42.4-38.21l0-71c0-6.35-7.36-10.5-7.36-10.5h36.43s-8.43,4.15-8.43,10.5l0,71c0,15,10,25.43,21.82,25.49s21.27-10.58,21.27-25.49l0-71C227.54,106.88,219.76,102.74,219.76,102.74Z" transform="translate(-81.16 -14.47)"/><path class="cls-1" d="M490.19,121.56s-5.11-8.95-19.88-9-22.81,7.73-22.84,17.79c0,11.39,8.53,15.7,21.79,22.07,12.61,6.05,31.57,14.43,31.5,35.46-0.05,18.88-16.78,34.65-46.8,34.65-9.24,0-22-3-22-3l-6.87-22.6c6.35,6.17,17.62,12.81,29.21,12.81,12,0,26.33-7.42,26.33-19.32,0-23-53.5-19.15-53.5-57.63,0-13.23,9.23-32.41,41.15-32.41,10.36,0,21.91,3,21.91,3v18.16Z" transform="translate(-81.16 -14.47)"/><path class="cls-2" d="M658.34,194.86v-92h48.41V112H673.44v30.13h27.63v9.17H673.44v43.53h-15.1Z" transform="translate(-81.16 -14.47)"/><path class="cls-2" d="M715.66,102.85h15.1v61.32q0,11.85,2.18,16.46,3.37,7.24,13.41,7.23,10.67,0,13.85-8.48,1.69-4.5,1.69-15.22V102.85h12.6v58.39a106.26,106.26,0,0,1-.56,12.66q-1.62,12.29-9.48,17.71-7.23,5.06-19.21,5.06-20.9,0-26.95-14.59-2.62-6.36-2.62-20.83v-58.4h0Z" transform="translate(-81.16 -14.47)"/><path class="cls-2" d="M792.54,102.85h15.09v66.87q0,16.71-1.43,24.64-2.87,15.4-15.29,19.71a49.46,49.46,0,0,1-13.41,2.06v-8q5.92-.56,8.42-2.24,4.68-3.25,5.93-12.66a97.76,97.76,0,0,0,.69-13.16V102.85h0Z" transform="translate(-81.16 -14.47)"/><path class="cls-2" d="M824.87,194.86v-92H840v92h-15.1Z" transform="translate(-81.16 -14.47)"/><path class="cls-2" d="M872.39,194.86V112h-22v-9.17h59.08V112h-22v82.84H872.39Z" transform="translate(-81.16 -14.47)"/><path class="cls-2" d="M914.57,193.06V182.4a44.2,44.2,0,0,0,20,5.06q19.21,0,19.21-15.16a15.85,15.85,0,0,0-3-9.8q-2.94-3.81-12.29-9.1a116,116,0,0,1-12.3-7.67q-6.23-5-8.67-10.42a23.82,23.82,0,0,1-1.87-9.73q0-11.61,7.23-17.9,7.55-6.61,22-6.61a55.5,55.5,0,0,1,16.78,2.31v9.92A39.31,39.31,0,0,0,946.5,110q-16.65,0-16.66,13.54a12.69,12.69,0,0,0,4.43,9.92q3.06,2.68,12.54,8a86.39,86.39,0,0,1,11.42,7.3q9.74,8,9.73,21.77,0,26.14-32.12,26.14A57.21,57.21,0,0,1,914.57,193.06Z" transform="translate(-81.16 -14.47)"/><path class="cls-2" d="M979.37,102.85h15.09v61.32q0,11.85,2.18,16.46,3.37,7.24,13.41,7.23,10.67,0,13.85-8.48,1.69-4.5,1.69-15.22V102.85h12.6v58.39a106.26,106.26,0,0,1-.56,12.66q-1.62,12.29-9.48,17.71-7.24,5.06-19.21,5.06-20.9,0-26.95-14.59-2.63-6.36-2.62-20.83v-58.4h0Z" transform="translate(-81.16 -14.47)"/><path class="cls-2" d="M1127.51,147.75h15v45.86a88.55,88.55,0,0,1-22,2.42q-22.79,0-31.6-13.59-7.44-11.48-7.45-31.78,0-25.39,11.8-38.42,10.18-11.36,30.29-11.36a56.51,56.51,0,0,1,16,2.3v9.36a51.2,51.2,0,0,0-15-2.73q-14.22,0-20.92,10.42T1097,151.16q0,18.93,5.59,27.69,5.39,8.5,18.06,8.5a38.61,38.61,0,0,0,6.89-.68V147.75Z" transform="translate(-81.16 -14.47)"/><path class="cls-2" d="M1156.12,194.24V102.69h50.09v9.12h-35.07v29.43h28v9.12h-28v34.75h36.49v9.12h-51.51Z" transform="translate(-81.16 -14.47)"/><path class="cls-2" d="M1217.35,194.24V102.69h16.57l27,57.66q3,6.39,6.57,16.45-0.48-7.94-.49-16V102.69h12.29v91.55h-15.71l-29.35-62.56q-2.24-4.91-5.09-12.85,0.5,9,.49,14.09v61.32h-12.29Z" transform="translate(-81.16 -14.47)"/><path class="cls-2" d="M1292.33,194.24V102.69h50.09v9.12h-35.07v29.43h28v9.12h-28v34.75h36.49v9.12h-51.51Z" transform="translate(-81.16 -14.47)"/><path class="cls-2" d="M1354.44,194.24V102.69a195.13,195.13,0,0,1,24.7-1.8q11.23,0,17.62,3.23,12.42,6.32,12.41,23.21,0,13.6-7.26,19.8-3.85,3.3-11.23,5.22l23.77,41.89h-16.39l-24.14-47.54q2.92,0.25,4.78.25,8.68,0,12.1-5.52,3-4.91,3-13.78,0-9.19-3.6-13.53T1378,109.84a52.29,52.29,0,0,0-8.5.81v83.6h-15Z" transform="translate(-81.16 -14.47)"/><path class="cls-2" d="M1469.86,170.84H1437l-7.26,23.4H1417l30.66-91.55h14.83l30.36,91.55h-15.77Zm-2.74-9.12-13.46-44.45-13.78,44.45h27.24Z" transform="translate(-81.16 -14.47)"/><path class="cls-2" d="M1504.37,194.24V102.69h15v82.42h33.7v9.12h-48.72Z" transform="translate(-81.16 -14.47)"/><path class="cls-3" d="M1375.75,265.53V222.36a94.36,94.36,0,0,1,11.27-.85q7.83,0,11.15,3.42,2.58,2.7,2.58,7.82,0,4.83-2.36,7.35a9.42,9.42,0,0,1-4,2.34,9.78,9.78,0,0,1,5.24,2.55c1.74,1.78,2.6,4.59,2.6,8.46q0,6.93-3.86,10.22-3.19,2.72-10.44,2.72A83.49,83.49,0,0,1,1375.75,265.53Zm5.39-24.53h4.28a28.14,28.14,0,0,0,4.74-.29q5.21-.94,5.21-7.85,0-4.22-2-6.12c-1.31-1.25-3.4-1.87-6.25-1.87a44.08,44.08,0,0,0-6,.5V241h0Zm0,21.51a45.08,45.08,0,0,0,6.12.5q5.35,0,7.23-2.14,2-2.4,2.05-7.23,0-6-2.92-8-2-1.41-8.19-1.41h-4.28v18.26h0Z" transform="translate(-81.16 -14.47)"/><path class="cls-3" d="M1408.92,265.53V222.36a94.88,94.88,0,0,1,11-.85q7.4,0,10.62,3.66a12.31,12.31,0,0,1,2.76,8.37q0,6.52-3.7,9.6a14.7,14.7,0,0,1-6,2.64l11.86,19.76h-6.09l-12.3-22.6c1,0.08,1.82.12,2.42,0.12q8.11,0,8.11-9.42,0-4.34-1.87-6.47t-6.5-2.16a40.68,40.68,0,0,0-5,.44v40.1h-5.38Z" transform="translate(-81.16 -14.47)"/><path class="cls-3" d="M1464.15,252.36h-15.9l-4.19,13.17h-4.77l14.52-43.17h5.82l14.47,43.17h-5.77Zm-1.09-3.48-6.85-21.63-6.88,21.63h13.73Z" transform="translate(-81.16 -14.47)"/><path class="cls-3" d="M1477.54,265.53V262.8l20.55-37h-18.2v-3.48H1504v2.75L1483.52,262h21.54v3.48h-27.51Z" transform="translate(-81.16 -14.47)"/><path class="cls-3" d="M1513.45,265.53V222.36h5.39v43.17h-5.39Z" transform="translate(-81.16 -14.47)"/><path class="cls-3" d="M1530.6,265.53V222.36H1536V262h16.51v3.48h-21.9Z" transform="translate(-81.16 -14.47)"/></svg>