<svg width="37" height="34" viewBox="0 0 37 34" fill="none" xmlns="http://www.w3.org/2000/svg">
<path d="M18.627 0C21.3442 0.0974899 24.1091 -0.0638727 26.7657 0.354661C30.8139 0.991707 33.7807 3.18355 35.6479 6.6041C36.6485 8.43792 37.0854 10.3457 36.9863 12.3644C36.9 14.1192 36.9808 15.9211 36.5622 17.6137C35.3835 22.379 30.4761 26.1273 25.139 26.3929C23.1526 26.492 21.581 26.8601 20.2922 28.4385C18.873 30.1748 17.0775 31.6523 15.4692 33.2609C14.7624 33.9668 13.9234 34.1803 12.9834 33.8441C12.0526 33.5113 11.7037 32.7953 11.7166 31.891C11.7368 30.3782 11.7092 28.8654 11.7221 27.3526C11.7276 26.7643 11.5146 26.4467 10.817 26.3273C6.95053 25.6651 3.9341 23.8161 1.82829 20.767C0.849745 19.3534 0.126391 17.8037 0.065805 16.1346C-0.0131398 13.9595 -0.082905 11.7475 0.245726 9.60443C1.01314 4.61228 6.59986 0.23532 12.1076 0.11766C14.2795 0.0705961 16.4514 0.109256 18.6252 0.109256L18.6288 0H18.627ZM18.594 1.83382C16.6057 1.83382 14.6174 1.82878 12.629 1.83382C7.58025 1.85063 2.96657 5.2863 2.09634 9.86665C1.78607 11.5021 1.88337 13.2099 1.8797 14.884C1.87236 20.2695 6.54111 24.6078 12.4216 24.6733C13.279 24.6834 13.5397 24.9574 13.5231 25.7104C13.4827 27.5577 13.4993 29.4066 13.5268 31.2556C13.5305 31.5279 13.7177 31.7985 13.8206 32.0691C14.0739 31.938 14.3824 31.854 14.5751 31.6691C16.3652 29.9462 18.2782 28.309 19.8626 26.4382C21.0816 24.9994 22.4347 24.5691 24.3294 24.6616C29.2313 24.9003 34.0892 21.3822 34.8841 16.6657C35.165 14.9933 35.0916 13.2653 35.0898 11.5626C35.0824 6.20405 30.309 1.84895 24.4689 1.83382C22.5118 1.82878 20.5529 1.83382 18.5958 1.83382H18.594Z" fill="white"/>
<path d="M14.7349 9.66999C14.487 9.36743 14.3273 9.12707 14.1198 8.92873C12.6052 7.4731 12.9999 7.62942 14.5182 6.63772C16.9471 5.05267 20.7181 5.01737 22.9984 6.47635C25.3006 7.95047 25.2198 11.492 22.8405 12.8519C22.2456 13.1914 21.5443 13.3931 21.0027 13.7847C20.4538 14.1831 19.8791 14.6739 19.6092 15.2404C19.2384 16.022 18.6325 15.669 18.146 15.6337C17.9477 15.6186 17.6558 15.1395 17.6393 14.8605C17.564 13.5746 18.359 12.714 19.4679 12.0568C19.8773 11.8148 20.3142 11.6063 20.7549 11.4164C21.5829 11.0601 21.917 10.4566 21.8417 9.64982C21.7683 8.85813 21.2781 8.37909 20.4409 8.18915C18.5371 7.75381 16.8131 8.07485 15.2911 9.22624C15.1296 9.34894 14.9735 9.47837 14.7349 9.66999Z" fill="white"/>
<path d="M18.392 18.4155C19.2402 18.3987 20.004 19.0257 19.9948 19.7316C19.9856 20.3989 19.2439 21.0998 18.5242 21.12C17.7751 21.1402 16.9747 20.4174 16.9747 19.7182C16.9747 19.0744 17.676 18.4306 18.3902 18.4155H18.392Z" fill="white"/>
</svg>
