<svg width="138" height="196" viewBox="0 0 138 196" fill="none" xmlns="http://www.w3.org/2000/svg">
<mask id="mask0_2_38" style="mask-type:luminance" maskUnits="userSpaceOnUse" x="0" y="0" width="138" height="196">
<path d="M138 0H0V196H138V0Z" fill="white"/>
</mask>
<g mask="url(#mask0_2_38)">
<path fill-rule="evenodd" clip-rule="evenodd" d="M121.29 0H16.7101C7.48074 0 0 7.4537 0 16.6497V94.2328H138V16.6497C138 7.4537 130.519 0 121.29 0Z" fill="#2F6B71"/>
<path fill-rule="evenodd" clip-rule="evenodd" d="M16.7101 196H138V94.2328H0V179.35C0 188.546 7.48074 196 16.7101 196Z" fill="#EDEDED"/>
<path d="M33.3623 120.194V107.283C34.5319 107.109 35.6899 107.029 36.8016 107.029C37.9132 107.029 38.7702 107.202 39.3839 107.548C40.5188 108.206 41.0746 109.382 41.0746 111.102C41.0746 112.302 40.8314 113.248 40.3335 113.952C39.6734 114.898 38.6196 115.382 37.1605 115.382C36.5352 115.382 35.9794 115.29 35.4698 115.117V120.182H33.3391L33.3623 120.194ZM35.493 113.871C35.9331 114.044 36.3615 114.125 36.7784 114.125C37.6122 114.125 38.1912 113.825 38.5154 113.213C38.7702 112.729 38.8976 112.048 38.8976 111.182C38.8976 110.248 38.7239 109.509 38.3649 108.99C38.0406 108.529 37.45 108.286 36.57 108.286C36.292 108.286 35.9331 108.321 35.4698 108.379V113.859L35.493 113.871Z" fill="#575756"/>
<path d="M42.9274 120.194V111.113C44.2012 110.894 45.6719 110.767 47.3394 110.732V111.944C46.4941 111.956 45.7067 112.025 44.9887 112.117V120.205H42.9274V120.194Z" fill="#575756"/>
<path d="M52.0757 110.721C53.4537 110.721 54.4728 111.159 55.1329 112.048C55.7813 112.925 56.1056 114.102 56.1056 115.579C56.1056 117.055 55.7813 118.221 55.1329 119.109C54.4844 119.998 53.4653 120.436 52.0873 120.436C50.7093 120.436 49.6786 119.998 49.0186 119.109C48.3701 118.232 48.0458 117.032 48.0458 115.521C48.0458 114.009 48.3701 112.913 49.0186 112.048C49.6786 111.159 50.6977 110.721 52.0757 110.721ZM52.0757 111.898C51.323 111.898 50.8019 112.256 50.524 112.959C50.2924 113.571 50.1766 114.425 50.1766 115.532C50.1766 116.709 50.2924 117.598 50.524 118.198C50.8019 118.902 51.323 119.259 52.0757 119.259C52.8284 119.259 53.3495 118.902 53.6159 118.198C53.859 117.586 53.9748 116.709 53.9748 115.567C53.9748 114.425 53.8475 113.536 53.6159 112.948C53.3379 112.244 52.8168 111.886 52.0757 111.886" fill="#575756"/>
<path d="M63.1463 119.582C62.5904 120.159 61.8493 120.448 60.9229 120.448C58.6995 120.448 57.5878 119.028 57.5878 116.19C57.5878 114.621 57.9005 113.34 58.5374 112.359C59.2322 111.275 60.4134 110.732 62.1041 110.732C63.0884 110.732 64.1306 110.859 65.2191 111.102V118.44C65.2191 119.802 65.1496 120.828 65.0223 121.509C64.7675 122.801 64.1537 123.701 63.1694 124.209C62.4399 124.578 61.4208 124.763 60.1239 124.763C59.7533 124.763 59.3133 124.74 58.8269 124.694V123.482C59.2554 123.551 59.6838 123.575 60.1123 123.575C61.0619 123.575 61.7567 123.413 62.2083 123.09C62.8452 122.64 63.1579 121.648 63.1579 120.136V119.605L63.1463 119.582ZM63.1463 112.002C62.8452 111.944 62.5209 111.909 62.1735 111.909C61.6293 111.909 61.2008 112.036 60.8882 112.302C60.4944 112.625 60.1934 113.179 59.9965 113.94C59.8112 114.598 59.7301 115.348 59.7301 116.167C59.7301 118.232 60.2628 119.259 61.3166 119.259C61.9883 119.259 62.4978 118.89 62.8452 118.14C62.9957 117.828 63.0884 117.494 63.1347 117.136C63.1579 116.963 63.1579 116.686 63.1579 116.282V112.002H63.1463Z" fill="#575756"/>
<path d="M67.9288 120.194V111.113C69.2026 110.894 70.6733 110.767 72.3409 110.732V111.944C71.4955 111.956 70.7081 112.025 69.9901 112.117V120.205H67.9288V120.194Z" fill="#575756"/>
<path d="M78.4436 114.298V113.952C78.4436 113.34 78.3393 112.89 78.1425 112.602C77.8646 112.152 77.2855 111.932 76.417 111.932C75.6875 111.932 74.8885 112.071 74.0084 112.348V111.067C74.8306 110.848 75.7338 110.732 76.7181 110.732C78.3509 110.732 79.4394 111.09 79.9953 111.806C80.2501 112.14 80.4122 112.636 80.4817 113.282C80.5048 113.536 80.5164 113.929 80.5164 114.459V120.09C79.2657 120.332 77.9919 120.459 76.695 120.459C75.5022 120.459 74.6105 120.298 74.0084 119.963C73.3252 119.582 72.9778 118.902 72.9778 117.909C72.9778 116.802 73.3946 115.971 74.24 115.429C74.8306 115.048 75.8149 114.736 77.1929 114.494C77.4593 114.448 77.8761 114.379 78.4436 114.298ZM78.4436 115.405C78.3509 115.429 78.2814 115.44 78.2351 115.452C77.2508 115.636 76.5213 115.832 76.0696 116.052C75.3864 116.386 75.0506 116.94 75.0506 117.725C75.0506 118.763 75.6759 119.271 76.915 119.271C77.5056 119.271 78.0151 119.213 78.4436 119.086V115.405Z" fill="#575756"/>
<path d="M83.1451 120.194V111.09C84.6158 110.848 85.8085 110.721 86.7118 110.721C87.8003 110.721 88.6572 110.894 89.2478 111.252C90.1742 110.894 91.1585 110.721 92.1776 110.721C93.6714 110.721 94.6325 111.148 95.061 112.002C95.2926 112.452 95.4084 113.236 95.4084 114.344V120.194H93.3472V114.794C93.3472 113.755 93.2777 113.052 93.1387 112.694C93.0113 112.394 92.8492 112.175 92.6176 112.059C92.4208 111.967 92.166 111.909 91.8302 111.909C91.3206 111.909 90.8111 112.013 90.3016 112.221V120.194H88.2403V114.759C88.2403 113.744 88.1709 113.052 88.0319 112.694C87.9045 112.394 87.7308 112.186 87.5108 112.059C87.3139 111.956 87.0476 111.898 86.7118 111.898C86.2022 111.898 85.6927 111.956 85.1948 112.082V120.182H83.1335L83.1451 120.194Z" fill="#575756"/>
<path d="M102.75 114.298V113.952C102.75 113.34 102.646 112.89 102.449 112.602C102.171 112.152 101.592 111.932 100.724 111.932C99.9941 111.932 99.1951 112.071 98.315 112.348V111.067C99.1372 110.848 100.04 110.732 101.025 110.732C102.658 110.732 103.746 111.09 104.302 111.806C104.557 112.14 104.719 112.636 104.788 113.282C104.811 113.536 104.823 113.929 104.823 114.459V120.09C103.572 120.332 102.299 120.459 101.002 120.459C99.8089 120.459 98.9172 120.298 98.315 119.963C97.6318 119.582 97.2844 118.902 97.2844 117.909C97.2844 116.802 97.7013 115.971 98.5466 115.429C99.1372 115.048 100.122 114.736 101.5 114.494C101.766 114.448 102.183 114.379 102.75 114.298ZM102.75 115.405C102.658 115.429 102.588 115.44 102.542 115.452C101.557 115.636 100.828 115.832 100.376 116.052C99.6931 116.386 99.3572 116.94 99.3572 117.725C99.3572 118.763 99.9826 119.271 101.222 119.271C101.812 119.271 102.322 119.213 102.75 119.086V115.405Z" fill="#575756"/>
<path d="M23.2297 150.77V129.147H35.2498V131.72H27.688V138.136H33.8949V140.72H27.688V150.77H23.2297Z" fill="#2F6B71"/>
<path d="M44.1896 140.974V140.397C44.1896 139.382 44.0159 138.655 43.6801 138.217C43.2053 137.605 42.2905 137.305 40.924 137.305C39.766 137.305 38.527 137.467 37.2184 137.801V135.32C38.5617 135.032 40.044 134.893 41.6768 134.893C44.7918 134.893 46.8067 135.551 47.7216 136.855C48.1037 137.409 48.3469 138.182 48.4395 139.163C48.4743 139.578 48.4974 140.259 48.4974 141.205V150.643C46.3204 151.024 44.0738 151.22 41.7578 151.22C40.2061 151.22 39.0249 151.105 38.2143 150.885C37.0679 150.574 36.2573 150.055 35.7825 149.316C35.4235 148.739 35.2382 148.001 35.2382 147.101C35.2382 145.301 35.9562 143.916 37.3805 142.947C38.608 142.128 40.8777 141.47 44.1781 140.963M44.1781 143.132C44.0159 143.166 43.9001 143.201 43.8075 143.224C42.5453 143.513 41.5725 143.836 40.8893 144.216C40.3798 144.516 40.0324 144.863 39.8355 145.255C39.6502 145.636 39.5576 146.132 39.5576 146.755C39.5576 147.459 39.7429 147.955 40.1019 148.255C40.5766 148.636 41.2251 148.832 42.0589 148.832C42.9621 148.832 43.6685 148.751 44.1781 148.601V143.143V143.132Z" fill="#2F6B71"/>
<path d="M52.5736 150.77V135.517C55.0634 135.113 57.1478 134.905 58.8153 134.905C60.6797 134.905 62.1388 135.159 63.2042 135.678C64.5822 135.159 66.1687 134.905 67.9867 134.905C70.5807 134.905 72.2598 135.505 73.0357 136.705C73.3483 137.201 73.5452 137.847 73.6378 138.62C73.6957 139.07 73.7305 139.74 73.7305 140.616V150.759H69.4227V142.001C69.4227 140.12 69.2721 138.863 68.9826 138.205C68.8553 137.917 68.67 137.697 68.4384 137.547C68.1836 137.386 67.7667 137.293 67.1877 137.293C66.5277 137.293 65.9139 137.397 65.3233 137.605V150.759H61.0155V142.001C61.0155 140.34 60.9229 139.22 60.7492 138.643C60.5986 138.124 60.3555 137.767 60.0428 137.57C59.7649 137.386 59.348 137.293 58.7806 137.293C58.1668 137.293 57.5531 137.374 56.9162 137.547V150.759H52.6084L52.5736 150.77Z" fill="#2F6B71"/>
<path d="M77.8762 135.332H82.184V150.77H77.8762V135.332ZM78.1888 133.163L80.4122 128.074H84.6042L81.1765 133.163H78.1888Z" fill="#2F6B71"/>
<path d="M90.8343 127.532H86.5265V150.77H90.8343V127.532Z" fill="#2F6B71"/>
<path d="M97.2496 128.363C97.9792 128.363 98.5813 128.628 99.0561 129.171C99.473 129.632 99.6699 130.163 99.6699 130.786C99.6699 131.513 99.4035 132.113 98.8708 132.586C98.4076 133.001 97.8634 133.197 97.2265 133.197C96.5085 133.197 95.9063 132.932 95.4316 132.39C95.0147 131.928 94.8178 131.374 94.8178 130.728C94.8178 130.082 95.0842 129.471 95.6284 128.963C96.08 128.559 96.6243 128.351 97.2496 128.351M95.1189 135.32H99.4267V150.759H95.1189V135.32Z" fill="#2F6B71"/>
<path d="M111.319 140.974V140.397C111.319 139.382 111.146 138.655 110.81 138.217C110.335 137.605 109.42 137.305 108.054 137.305C106.896 137.305 105.657 137.467 104.348 137.801V135.32C105.692 135.032 107.174 134.893 108.807 134.893C111.922 134.893 113.937 135.551 114.851 136.855C115.234 137.409 115.477 138.182 115.569 139.163C115.604 139.578 115.627 140.259 115.627 141.205V150.643C113.45 151.024 111.204 151.22 108.888 151.22C107.336 151.22 106.155 151.105 105.344 150.885C104.198 150.574 103.387 150.055 102.912 149.316C102.553 148.739 102.368 148.001 102.368 147.101C102.368 145.301 103.086 143.916 104.522 142.947C105.749 142.128 108.019 141.47 111.319 140.963M111.319 143.132C111.157 143.166 111.042 143.201 110.949 143.224C109.687 143.513 108.714 143.836 108.031 144.216C107.521 144.516 107.174 144.863 106.977 145.255C106.792 145.636 106.699 146.132 106.699 146.755C106.699 147.459 106.884 147.955 107.243 148.255C107.718 148.636 108.367 148.832 109.2 148.832C110.104 148.832 110.81 148.751 111.319 148.601V143.143V143.132Z" fill="#2F6B71"/>
<path d="M26.8774 172.381H19.3272L18.0071 176.766H14.3014L21.5506 155.143H25.6731L32.8064 176.766H28.1512L26.8658 172.381H26.8774ZM26.1363 169.797L23.1834 159.632L20.1031 169.797H26.1363Z" fill="#2F6B71"/>
<path d="M36.7436 154.359C37.4732 154.359 38.0754 154.624 38.5501 155.166C38.9554 155.628 39.1639 156.17 39.1639 156.782C39.1639 157.508 38.8975 158.108 38.3649 158.582C37.9017 158.997 37.3574 159.193 36.7205 159.193C36.0025 159.193 35.4004 158.928 34.9256 158.385C34.5087 157.924 34.3118 157.37 34.3118 156.724C34.3118 156.078 34.5782 155.466 35.1224 154.959C35.5741 154.555 36.1067 154.347 36.7436 154.347M34.6129 161.316H38.9207V176.754H34.6129V161.316Z" fill="#2F6B71"/>
<path d="M43.1011 176.766V161.535C45.3013 161.224 48.0226 161.016 51.2651 160.901V163.301C49.7133 163.37 48.4279 163.474 47.4089 163.612V176.766H43.1011Z" fill="#2F6B71"/>
<path d="M52.5736 176.708V174.124C53.6737 174.562 54.9012 174.781 56.2677 174.781C57.2867 174.781 58.0742 174.608 58.6416 174.25C59.0932 173.962 59.3248 173.558 59.3248 173.016C59.3248 172.624 59.1743 172.277 58.8848 171.954C58.6763 171.735 58.2479 171.377 57.611 170.916C55.7234 169.566 54.5191 168.585 53.9864 167.985C53.2453 167.143 52.8863 166.185 52.8863 165.124C52.8863 163.751 53.3958 162.689 54.4149 161.974C55.4223 161.247 56.8235 160.889 58.6069 160.889C59.6607 160.889 60.8071 161.016 62.0462 161.258V163.762C61.2124 163.451 60.286 163.289 59.2669 163.289C57.611 163.289 56.7772 163.843 56.7772 164.928C56.7772 165.493 57.032 165.989 57.5299 166.404C57.7731 166.601 58.5142 167.097 59.7533 167.881C60.9229 168.631 61.803 169.404 62.382 170.189C62.9378 170.927 63.2157 171.781 63.2157 172.75C63.2157 175.693 61.1545 177.158 57.032 177.158C55.2486 177.158 53.7548 176.997 52.5736 176.673" fill="#2F6B71"/>
<path d="M65.8213 156.655H70.1291V161.328H73.9736V163.854H70.1291V170.95C70.1291 172.312 70.3143 173.212 70.6733 173.662C71.1134 174.204 71.8313 174.481 72.8272 174.481H73.9736V176.766H71.9124C70.7312 176.766 69.7353 176.662 68.9595 176.454C68.0099 176.2 67.2572 175.658 66.7129 174.827C66.2729 174.181 66.0065 173.189 65.9023 171.85C65.856 171.274 65.8328 170.558 65.8328 169.704V156.643L65.8213 156.655Z" fill="#2F6B71"/>
<path d="M84.8821 166.97V166.393C84.8821 165.378 84.7084 164.651 84.3726 164.212C83.8978 163.601 82.983 163.301 81.6165 163.301C80.4585 163.301 79.2194 163.462 77.9109 163.797V161.316C79.2542 161.028 80.7364 160.889 82.3692 160.889C85.4843 160.889 87.4992 161.547 88.414 162.851C88.7962 163.404 89.0394 164.178 89.132 165.158C89.1667 165.574 89.1899 166.254 89.1899 167.201V176.639C87.0128 177.02 84.7663 177.216 82.4503 177.216C80.8986 177.216 79.7174 177.1 78.9068 176.881C77.7603 176.57 76.9497 176.05 76.475 175.312C76.116 174.735 75.9307 173.997 75.9307 173.097C75.9307 171.297 76.6487 169.912 78.0846 168.943C79.3121 168.124 81.5818 167.466 84.8821 166.958M84.8821 169.127C84.72 169.162 84.6042 169.197 84.5115 169.22C83.2493 169.508 82.2766 169.831 81.5934 170.212C81.0838 170.512 80.7364 170.858 80.5396 171.25C80.3543 171.631 80.2616 172.127 80.2616 172.75C80.2616 173.454 80.4469 173.95 80.8059 174.25C81.2807 174.631 81.9292 174.827 82.763 174.827C83.6662 174.827 84.3726 174.747 84.8821 174.597V169.139V169.127Z" fill="#2F6B71"/>
<path d="M101.407 176.108C101.175 176.35 100.897 176.547 100.55 176.697C99.7972 177.031 98.9519 177.193 98.0371 177.193C94.2388 177.193 92.3397 174.92 92.3397 170.374C92.3397 167.512 92.8955 165.228 94.0072 163.543C95.1536 161.789 97.1917 160.901 100.133 160.901C101.882 160.901 103.746 161.108 105.726 161.512V173.847C105.726 176.131 105.599 177.839 105.356 178.946C104.869 181.162 103.758 182.696 102.009 183.539C100.816 184.104 99.1024 184.393 96.8559 184.393C96.1032 184.393 95.2578 184.358 94.343 184.277V181.796C95.061 181.923 95.7789 181.981 96.5085 181.981C98.0023 181.981 99.0793 181.785 99.7625 181.393C100.863 180.758 101.407 179.316 101.407 177.054V176.097V176.108ZM101.407 163.485C101.071 163.37 100.677 163.312 100.226 163.312C99.4846 163.312 98.8824 163.531 98.4308 163.97C97.8518 164.524 97.4233 165.435 97.1454 166.693C96.9138 167.766 96.798 168.92 96.798 170.154C96.798 172.035 97.0064 173.316 97.4465 174.008C97.7707 174.527 98.2455 174.781 98.894 174.781C99.9594 174.781 100.677 174.066 101.071 172.647C101.291 171.839 101.407 170.651 101.407 169.093V163.474V163.485Z" fill="#2F6B71"/>
<path d="M113.219 169.808C113.219 171.043 113.381 172.024 113.67 172.75C114.018 173.616 114.62 174.193 115.477 174.47C116.148 174.689 117.04 174.793 118.152 174.793C119.541 174.793 120.769 174.527 121.834 174.02V176.558C120.537 176.985 118.985 177.204 117.167 177.204C114.284 177.204 112.188 176.627 110.879 175.462C109.571 174.308 108.922 172.416 108.922 169.797C108.922 167.316 109.443 165.285 110.486 163.716C111.713 161.847 113.589 160.912 116.125 160.912C118.071 160.912 119.599 161.455 120.734 162.551C121.695 163.485 122.274 164.835 122.459 166.624C122.552 167.408 122.587 168.47 122.575 169.808H113.219ZM113.219 167.581H118.638C118.638 166.774 118.545 166.024 118.372 165.32C118.186 164.535 117.885 163.993 117.492 163.681C117.144 163.393 116.669 163.254 116.044 163.254C114.284 163.254 113.346 164.697 113.219 167.581Z" fill="#2F6B71"/>
<path fill-rule="evenodd" clip-rule="evenodd" d="M41.6883 61.9949C41.6883 63.1487 40.7388 64.0833 39.5808 64.0833C38.4228 64.0833 37.4848 63.1372 37.4848 61.9949V47.6529C37.4848 44.203 40.3219 41.3646 43.7843 41.3646C47.2468 41.3646 50.0955 44.1914 50.0955 47.6529V66.1833C50.0955 67.3371 51.0451 68.2717 52.1915 68.2717C53.3379 68.2717 54.2991 67.3256 54.2991 66.1833V36.807C54.2991 33.357 57.1362 30.5186 60.5986 30.5186C64.0611 30.5186 66.9098 33.3455 66.9098 36.807V74.6985C66.9098 75.8523 67.8478 76.7869 69.0058 76.7869C70.1638 76.7869 71.1134 75.8523 71.1134 74.6985V31.8917C71.1134 28.4417 73.9505 25.6149 77.4129 25.6149C80.8754 25.6149 83.7125 28.4417 83.7125 31.8917V61.9834C83.7125 63.1372 84.6621 64.0718 85.8201 64.0718C86.9781 64.0718 87.9161 63.1257 87.9161 61.9834V43.453C87.9161 40.003 90.7532 37.1646 94.2272 37.1646C97.7013 37.1646 100.527 39.9915 100.527 43.453V61.9834C100.527 63.1372 99.5772 64.0718 98.4308 64.0718C97.2844 64.0718 96.3232 63.1257 96.3232 61.9834V43.453C96.3232 42.2992 95.3853 41.353 94.2272 41.353C93.0692 41.353 92.1197 42.2992 92.1197 43.453V61.9834C92.1197 65.4333 89.2825 68.2602 85.8201 68.2602C82.3576 68.2602 79.5205 65.4333 79.5205 61.9834V31.8917C79.5205 30.7378 78.5709 29.8032 77.4129 29.8032C76.2549 29.8032 75.3169 30.7494 75.3169 31.8917V74.7101C75.3169 78.16 72.4798 80.9869 69.0058 80.9869C65.5318 80.9869 62.7062 78.16 62.7062 74.7101V36.807C62.7062 35.6531 61.7567 34.707 60.5986 34.707C59.4406 34.707 58.5026 35.6531 58.5026 36.807V66.1718C58.5026 69.6217 55.6655 72.4486 52.2031 72.4486C48.7406 72.4486 45.9035 69.6217 45.9035 66.1718V47.6414C45.9035 46.4875 44.9539 45.5414 43.7959 45.5414C42.6379 45.5414 41.6999 46.4875 41.6999 47.6414V61.9834L41.6883 61.9949Z" fill="white"/>
<path fill-rule="evenodd" clip-rule="evenodd" d="M94.2041 24.8072C91.9344 24.8072 90.0931 26.6418 90.0931 28.9033C90.0931 31.1648 91.9344 32.9878 94.2041 32.9878C96.4738 32.9878 98.315 31.1532 98.315 28.9033C98.315 26.6533 96.4738 24.8072 94.2041 24.8072Z" fill="white"/>
<path fill-rule="evenodd" clip-rule="evenodd" d="M77.4014 13.2459C75.1317 13.2459 73.2904 15.0805 73.2904 17.342C73.2904 19.6034 75.1317 21.4265 77.4014 21.4265C79.6711 21.4265 81.5123 19.5919 81.5123 17.342C81.5123 15.092 79.6711 13.2459 77.4014 13.2459Z" fill="white"/>
<path fill-rule="evenodd" clip-rule="evenodd" d="M60.5986 18.1612C58.3289 18.1612 56.4877 19.9958 56.4877 22.2573C56.4877 24.5188 58.3289 26.3418 60.5986 26.3418C62.8683 26.3418 64.7096 24.5072 64.7096 22.2573C64.7096 20.0073 62.8683 18.1612 60.5986 18.1612Z" fill="white"/>
<path fill-rule="evenodd" clip-rule="evenodd" d="M43.7843 28.9956C41.5146 28.9956 39.6734 30.8302 39.6734 33.0916C39.6734 35.3531 41.5146 37.1762 43.7843 37.1762C46.054 37.1762 47.8953 35.3416 47.8953 33.0916C47.8953 30.8417 46.054 28.9956 43.7843 28.9956Z" fill="white"/>
</g>
</svg>
